<?xml version="1.0" standalone="no"?>
<!DOCTYPE svg PUBLIC "-//W3C//DTD SVG 20010904//EN"
 "http://www.w3.org/TR/2001/REC-SVG-20010904/DTD/svg10.dtd">
<svg version="1.0" xmlns="http://www.w3.org/2000/svg"
 width="2048.000000pt" height="2048.000000pt" viewBox="0 0 2048.000000 2048.000000"
 preserveAspectRatio="xMidYMid meet">
<metadata>
Created by potrace 1.14, written by Peter Selinger 2001-2017
</metadata>
<g transform="translate(0.000000,2048.000000) scale(0.100000,-0.100000)"
fill="#000000" stroke="none">
<path d="M0 10240 l0 -10240 5192 2 5193 3 52 257 c92 456 168 947 223 1438
37 328 35 309 50 585 8 144 17 231 26 253 16 38 18 54 4 32 -7 -10 -10 8 -10
60 0 47 5 81 13 89 10 11 9 12 -1 6 -11 -6 -12 19 -7 137 24 561 21 1668 -6
1828 -5 30 -16 213 -24 405 -9 193 -23 427 -31 520 -19 205 -26 313 -19 300 6
-12 114 -607 154 -850 59 -351 161 -1074 161 -1141 0 -27 -5 -32 -49 -48 -53
-19 -105 -62 -95 -78 7 -11 7 -12 23 -218 22 -281 33 -507 30 -573 -2 -37 0
-67 4 -67 5 0 33 7 63 16 l54 15 40 -33 c40 -33 50 -51 28 -47 -23 4 -102 -22
-133 -44 -40 -29 -71 -57 -61 -57 5 0 3 -7 -4 -15 -9 -11 -9 -15 -1 -15 7 0 9
-10 6 -27 -3 -16 -10 -116 -15 -223 -6 -107 -15 -217 -20 -245 -6 -27 -12 -85
-14 -127 -3 -43 -8 -88 -11 -99 -4 -12 -3 -20 1 -17 5 2 20 9 34 15 60 26 198
95 236 117 22 13 67 30 98 37 51 11 64 10 111 -6 76 -25 190 -17 265 20 81 39
168 87 225 123 32 20 79 37 130 47 44 9 92 19 106 22 25 5 25 3 27 -54 1 -32
4 -79 8 -106 3 -27 1 -70 -7 -99 -8 -35 -9 -53 -2 -55 23 -8 -9 -699 -48
-1033 -12 -105 -25 -224 -44 -400 -15 -136 -57 -499 -71 -597 l-7 -53 51 0 50
0 10 53 10 52 1 -52 1 -53 4240 0 4240 0 0 4333 0 4333 -32 13 c-18 8 -40 15
-48 16 -43 7 -327 98 -338 110 -13 12 28 73 90 133 38 37 93 99 121 137 29 39
59 77 68 85 9 8 44 52 78 98 l61 83 0 5569 0 5570 -10240 0 -10240 0 0 -10240z
m9698 8166 c14 -8 146 -265 192 -371 7 -17 15 -25 17 -17 3 7 -1 19 -7 27 -8
10 -9 15 -2 15 6 0 14 -10 18 -22 4 -13 20 -39 35 -59 30 -38 37 -59 19 -59
-5 0 -10 7 -10 15 0 8 -4 15 -10 15 -17 0 -11 -25 10 -48 11 -12 20 -28 20
-37 0 -8 4 -15 10 -15 5 0 7 -7 4 -15 -4 -9 5 -32 18 -53 13 -20 27 -45 31
-55 7 -20 28 -19 35 1 2 7 -8 16 -22 22 -21 8 -26 16 -26 45 0 24 4 34 11 29
6 -3 9 -17 6 -30 -2 -13 0 -21 4 -18 5 3 10 20 11 37 1 27 2 25 8 -13 l7 -45
2 40 c0 22 10 93 21 158 11 65 20 130 20 144 0 15 3 24 6 20 4 -3 5 -39 4 -79
-4 -141 0 -175 20 -163 12 7 13 45 2 45 -5 0 -9 14 -9 31 0 29 2 30 14 13 12
-16 13 -16 13 9 0 15 -4 27 -10 27 -5 0 -10 5 -10 11 0 5 4 8 9 4 11 -6 31 26
31 49 0 10 -9 17 -22 17 l-23 2 23 4 c27 5 35 24 41 98 1 5 5 5 11 -1 6 -6 6
-22 0 -43 -5 -19 -7 -37 -5 -41 3 -4 0 -33 -7 -64 -13 -65 -7 -79 21 -45 l19
24 -5 -28 c-5 -26 -4 -27 36 -27 l41 0 0 -40 c0 -39 32 -99 65 -124 8 -6 17
-22 20 -35 2 -13 6 -26 9 -28 7 -7 233 181 346 287 20 19 29 39 34 80 4 31 11
62 17 70 7 11 8 9 5 -10 -12 -63 -17 -100 -12 -100 2 0 12 8 22 17 16 16 22
16 108 -6 50 -13 101 -28 113 -34 25 -11 31 -27 9 -27 -7 0 -34 -9 -60 -21
-61 -27 -90 -72 -115 -179 -20 -88 -62 -325 -63 -363 -1 -12 -5 -26 -9 -32 -4
-5 -10 -30 -14 -55 -3 -25 -10 -63 -15 -85 -25 -115 -51 -300 -45 -326 5 -21
18 -35 46 -49 26 -14 37 -25 33 -35 -7 -18 -25 -19 -77 -4 -21 5 -81 18 -135
27 -112 20 -126 37 -52 62 94 33 98 39 120 195 7 44 20 127 30 185 26 147 30
190 18 190 -7 0 -6 5 1 14 7 8 9 25 6 38 -3 12 3 75 14 138 11 63 19 115 18
117 -1 1 -29 -23 -62 -53 -115 -106 -184 -174 -178 -174 4 0 -4 -11 -17 -25
-12 -13 -26 -22 -30 -20 -11 7 -31 -20 -23 -29 4 -4 -1 -4 -11 0 -13 5 -17 4
-12 -4 3 -6 -4 -18 -16 -26 -22 -16 -22 -16 -3 -31 11 -8 15 -15 10 -15 -6 0
-16 5 -23 12 -9 9 -15 9 -24 0 -9 -9 -9 -12 3 -12 7 0 1 -9 -15 -19 -17 -11
-33 -18 -37 -15 -4 2 -5 -6 -2 -18 3 -17 2 -19 -5 -9 -10 13 -23 6 -71 -39
-49 -47 -121 -100 -135 -100 -11 0 -25 18 -38 48 -90 208 -206 437 -210 416
-2 -15 -7 -10 -21 18 -19 41 -33 53 -41 39 -3 -5 1 -11 9 -15 8 -3 15 -11 15
-17 0 -24 -51 -120 -60 -114 -6 4 -10 1 -10 -6 0 -15 -39 -49 -55 -49 -7 0
-23 25 -36 55 -16 36 -30 55 -41 55 -13 0 -18 8 -18 32 0 44 -7 32 -19 -32 -5
-30 -21 -107 -35 -170 -14 -63 -26 -134 -26 -157 0 -55 30 -115 65 -131 17 -8
25 -18 23 -30 -4 -20 -16 -20 -123 1 -44 9 -113 21 -153 28 -78 12 -92 30 -31
40 69 11 98 38 119 109 32 110 80 383 81 455 0 17 -1 62 -1 102 -1 39 2 73 7
76 4 3 7 -16 6 -41 -4 -71 5 -39 20 78 15 107 8 240 -13 280 -5 10 -30 26 -55
36 -56 23 -56 46 0 56 46 7 219 3 233 -6z m534 -183 c-3 -16 -7 -22 -10 -15
-4 13 4 42 11 42 2 0 2 -12 -1 -27z m-92 -53 c0 -5 -5 -10 -11 -10 -5 0 -7 5
-4 10 3 6 8 10 11 10 2 0 4 -4 4 -10z m140 0 c0 -5 -9 -10 -21 -10 -11 0 -17
5 -14 10 3 6 13 10 21 10 8 0 14 -4 14 -10z m-43 -102 c-3 -8 -6 -5 -6 6 -1
11 2 17 5 13 3 -3 4 -12 1 -19z m-750 -65 c-2 -16 -4 -3 -4 27 0 30 2 43 4 28
2 -16 2 -40 0 -55z m560 -150 c-3 -10 -5 -4 -5 12 0 17 2 24 5 18 2 -7 2 -21
0 -30z m-1777 -167 c0 -3 -4 -8 -10 -11 -5 -3 -10 -1 -10 4 0 6 5 11 10 11 6
0 10 -2 10 -4z m-631 -98 c-1 -80 -3 -87 -10 -48 -11 64 -11 140 1 140 6 0 10
-37 9 -92z m-52 35 c-3 -10 -5 -4 -5 12 0 17 2 24 5 18 2 -7 2 -21 0 -30z
m-595 -115 c4 -113 -13 -97 -19 19 -4 60 -2 85 5 78 6 -5 12 -49 14 -97z m610
64 c-7 -2 -10 -8 -6 -13 6 -11 -4 -11 -31 1 -17 7 -17 9 -2 9 9 1 17 5 17 11
0 5 8 6 17 3 11 -4 13 -8 5 -11z m-567 -68 c9 -31 14 -58 11 -61 -4 -5 -36 91
-36 109 0 22 10 2 25 -48z m852 -560 c-3 -3 -12 -4 -19 -1 -8 3 -5 6 6 6 11 1
17 -2 13 -5z m-192 -27 c6 -4 -3 -5 -19 -1 -19 5 -27 3 -23 -3 4 -7 -10 -9
-41 -7 -37 3 -43 2 -27 -6 18 -9 18 -10 -4 -6 -26 5 -91 -20 -91 -35 0 -5 -13
-15 -29 -23 -27 -14 -29 -14 -26 2 1 9 0 11 -2 4 -3 -7 -8 -10 -13 -7 -4 3 -6
-4 -3 -15 4 -16 2 -19 -11 -14 -12 5 -15 2 -10 -12 5 -18 5 -18 -6 -1 -18 28
8 77 41 77 28 0 105 29 80 30 -8 0 -12 2 -9 5 8 8 46 16 108 22 30 2 57 7 59
9 2 2 7 1 10 -3 3 -4 11 -11 16 -16z m142 9 c3 -3 -22 -5 -56 -4 -34 0 -64 4
-66 8 -5 8 114 4 122 -4z m-456 -217 c-16 -60 -22 -94 -25 -139 -10 -123 -19
-183 -26 -165 -4 11 -6 23 -4 27 3 4 9 55 14 115 15 162 31 248 43 227 7 -12
6 -33 -2 -65z m1209 -90 c36 -27 88 -68 117 -89 28 -22 55 -45 59 -51 9 -15
-50 19 -77 44 -11 10 -24 15 -31 11 -6 -4 -8 -3 -4 4 3 6 2 13 -4 17 -6 4 -9
-4 -8 -18 2 -17 7 -23 18 -20 10 3 10 1 -2 -7 -10 -6 -18 -18 -18 -26 0 -8 -4
-12 -10 -9 -6 4 -7 -1 -3 -10 3 -9 0 -41 -7 -72 l-14 -55 -35 7 c-20 3 -48 11
-64 17 -23 9 -25 12 -12 22 13 9 16 38 18 148 1 76 4 138 7 138 3 0 34 -23 70
-51z m-235 -18 c-1 -22 2 -38 6 -35 5 3 9 -12 9 -33 0 -49 10 -84 21 -77 5 3
9 -1 9 -9 0 -8 9 -22 20 -32 11 -10 20 -25 20 -33 0 -18 -57 -9 -114 19 -22
10 -47 19 -55 20 -11 0 -12 2 -3 6 14 5 16 30 4 35 -5 2 -7 21 -4 43 l5 40 11
-45 c7 -27 17 -46 27 -48 13 -2 17 12 23 80 4 46 8 91 9 100 3 35 14 6 12 -31z
m2195 -121 l65 -19 -50 6 c-27 3 -61 12 -75 19 -36 19 -15 17 60 -6z m-103 4
c-3 -3 -12 -4 -19 -1 -8 3 -5 6 6 6 11 1 17 -2 13 -5z m258 -39 c22 -8 31 -14
20 -14 -21 0 -88 27 -70 28 6 0 28 -6 50 -14z m-990 -126 c25 -14 97 -40 154
-56 8 -2 12 -5 10 -8 -15 -14 -239 71 -255 97 -6 10 54 -12 91 -33z m-1250 6
c74 -25 135 -54 135 -65 0 -5 -5 -10 -12 -10 -9 0 -9 -3 0 -12 17 -17 -17 -39
-41 -26 -21 11 -194 63 -246 73 -24 5 -30 10 -20 16 10 6 7 9 -11 10 -14 0
-19 3 -12 6 6 2 12 12 12 20 0 14 11 15 78 9 42 -4 95 -13 117 -21z m1603 -80
c9 -9 -95 -3 -109 7 -9 5 8 7 45 4 32 -3 61 -8 64 -11z m-1947 -25 c14 0 14
-5 -2 -52 -12 -35 -18 -83 -19 -141 0 -86 0 -88 27 -98 15 -5 37 -8 49 -5 13
4 26 2 29 -4 3 -5 15 -10 26 -10 10 0 19 -6 20 -12 0 -7 4 -4 9 7 5 11 9 14 9
7 1 -7 12 -24 26 -37 19 -20 34 -25 72 -25 28 0 58 7 71 16 12 8 22 10 22 5 0
-6 -4 -11 -10 -11 -5 0 -10 -5 -10 -10 0 -6 11 -8 27 -4 22 6 25 4 20 -10 -4
-10 -7 -21 -7 -26 0 -5 -20 -7 -45 -5 -32 3 -45 0 -45 -9 0 -19 -20 -33 -56
-40 -29 -6 -33 -4 -43 24 -8 24 -8 38 1 53 10 19 7 18 -21 -5 l-31 -27 -43 24
c-69 40 -75 31 -23 -36 44 -58 156 -119 219 -119 49 0 163 52 213 97 54 47
102 120 109 163 l7 42 30 -29 c63 -59 181 -266 192 -335 1 -7 5 -19 10 -26 16
-26 10 -78 -12 -109 -32 -45 -122 -59 -286 -45 -222 20 -351 71 -474 187 -91
86 -131 148 -178 281 -48 133 -56 225 -24 282 26 46 39 52 90 46 19 -2 42 -4
51 -4z m260 -50 c60 -15 131 -41 147 -53 11 -8 11 -12 0 -18 -7 -5 -8 -9 -3
-9 6 0 11 -14 12 -31 2 -26 -1 -29 -17 -24 -16 5 -20 2 -20 -17 0 -13 -5 -30
-10 -38 -8 -12 -10 -11 -10 6 0 11 -9 29 -20 39 -20 18 -20 17 -20 -28 0 -58
-25 -87 -74 -87 -28 0 -38 6 -61 42 -19 29 -28 56 -29 85 -1 24 -5 43 -9 43
-5 0 -5 -6 -1 -12 4 -7 4 -10 -1 -6 -4 4 -8 31 -7 60 0 29 -4 58 -9 64 -10 12
53 5 132 -16z m102 -265 c-3 -9 -8 -14 -10 -11 -3 3 -2 9 2 15 9 16 15 13 8
-4z m67 -19 c0 -16 -18 -31 -27 -22 -8 8 5 36 17 36 5 0 10 -6 10 -14z m-2473
-107 c11 -9 14 -10 9 -1 -5 8 1 12 18 12 14 0 26 -6 26 -12 0 -7 3 -23 6 -34
5 -19 2 -21 -28 -18 -83 8 -474 4 -568 -6 -58 -6 -152 -13 -210 -15 -58 -3
-114 -7 -125 -10 -43 -12 -82 -18 -122 -19 -24 0 -43 -4 -43 -8 0 -4 -11 -8
-25 -8 -14 0 -25 -4 -25 -10 0 -5 11 -10 25 -10 18 0 25 -5 25 -20 0 -11 -6
-20 -14 -20 -7 0 -16 -9 -19 -21 -3 -11 -15 -23 -26 -26 -38 -10 -24 -33 19
-33 22 0 40 -4 40 -10 0 -5 -18 -10 -40 -10 -22 0 -40 5 -40 10 0 6 -33 10
-80 10 -62 0 -87 -4 -112 -20 -21 -12 -51 -20 -80 -20 -36 0 -48 -4 -48 -15 0
-15 36 -21 125 -18 32 1 35 0 15 -6 l-25 -7 23 -19 c12 -11 22 -27 22 -37 0
-13 8 -18 25 -18 14 0 25 -6 25 -13 0 -22 -22 -37 -55 -37 -19 0 -38 -8 -49
-21 -12 -15 -21 -18 -28 -11 -6 6 -16 8 -24 5 -15 -6 68 -73 90 -73 8 0 18 -5
22 -12 5 -7 2 -8 -7 -3 -11 6 -11 5 -3 -4 9 -9 17 -10 31 -2 15 7 20 7 20 -4
0 -7 -6 -11 -14 -8 -7 3 -13 0 -13 -7 0 -6 10 -10 23 -8 12 2 21 9 19 16 -1 8
2 11 7 8 5 -4 8 -16 6 -27 -3 -13 5 -29 19 -43 13 -12 27 -37 30 -56 3 -19 8
-54 12 -77 3 -24 11 -43 16 -43 5 0 6 -4 3 -10 -6 -9 5 -47 38 -135 9 -22 18
-53 21 -68 4 -15 10 -26 14 -23 4 2 8 -10 8 -27 1 -17 6 -33 13 -35 6 -2 11
-10 11 -19 0 -8 7 -40 16 -71 13 -44 18 -52 26 -38 5 9 6 26 3 39 -5 19 -4 19
5 5 6 -10 7 -29 3 -45 -8 -33 -5 -60 10 -88 6 -11 12 -28 14 -37 3 -19 48
-155 65 -195 6 -16 12 -33 13 -38 3 -13 103 -331 115 -365 5 -14 12 -40 15
-57 4 -18 10 -35 13 -37 12 -7 399 43 489 63 l84 19 15 -37 c72 -169 134 -321
134 -329 0 -5 -53 -12 -117 -15 -213 -10 -804 -106 -1288 -208 -238 -50 -448
-103 -520 -130 -31 -11 -62 -18 -69 -16 -8 3 -27 29 -43 59 -17 29 -67 115
-111 192 -45 76 -82 139 -82 141 0 1 35 5 78 8 42 3 194 31 337 61 143 30 357
71 476 92 l216 37 -14 46 c-8 25 -23 74 -33 109 -10 34 -26 76 -34 94 -9 17
-16 39 -16 49 0 10 -4 20 -9 23 -5 3 -12 22 -16 43 -5 28 -9 33 -17 22 -8 -11
-9 -10 -4 5 7 22 -21 106 -41 122 -15 13 -18 28 -3 19 12 -8 0 26 -29 81 -12
21 -21 49 -21 62 0 13 -4 20 -10 17 -6 -3 -10 4 -11 17 0 13 -4 32 -9 43 -7
14 -8 10 -4 -16 3 -20 2 -39 -3 -42 -4 -3 -9 7 -10 21 -3 30 -10 103 -12 115
0 5 -6 5 -12 1 -6 -3 -10 1 -9 12 1 11 1 22 0 27 -1 4 -3 10 -5 15 -1 4 -7 20
-13 35 -7 16 -12 33 -12 38 0 6 -5 7 -12 3 -7 -5 -8 -3 -4 5 9 13 -11 71 -24
71 -4 0 -7 8 -6 18 1 14 -8 17 -46 18 -25 1 -70 -2 -100 -7 -29 -4 -96 -10
-148 -13 -150 -10 -558 -55 -631 -70 -36 -8 -82 -21 -102 -29 -36 -16 -37 -15
-55 11 -18 26 -107 178 -182 312 -20 36 -65 113 -98 172 -34 60 -62 110 -62
113 0 4 48 3 108 0 100 -7 237 4 482 35 36 5 137 16 225 24 88 9 187 19 220
22 33 3 63 11 67 17 6 9 8 9 8 0 0 -22 38 -14 67 13 l28 26 -50 -8 c-53 -9
-79 -10 -212 -6 -47 1 -83 6 -83 12 0 6 8 10 18 10 16 1 16 1 0 14 -14 10 -18
28 -18 80 l0 67 -97 -6 c-122 -8 -343 -32 -403 -44 -25 -5 -88 -15 -140 -21
-52 -7 -112 -16 -132 -21 -20 -5 -76 -16 -125 -24 -48 -8 -113 -19 -143 -24
-67 -12 -237 -41 -267 -46 -24 -3 -49 18 -39 34 3 5 -2 8 -11 7 -10 -2 -18 -7
-18 -12 0 -5 -4 -15 -9 -23 -6 -9 -5 -12 2 -7 6 3 13 2 16 -3 3 -5 0 -11 -8
-14 -15 -6 -53 29 -43 40 4 3 -1 12 -11 19 -9 7 -15 15 -12 17 3 3 41 15 85
27 44 12 89 27 100 33 10 5 44 16 75 24 30 8 71 18 90 23 19 5 43 7 54 4 12
-4 16 -2 12 5 -4 7 1 11 13 11 10 0 27 3 37 7 11 4 15 3 10 -5 -3 -6 -2 -14 4
-17 6 -4 9 -1 8 6 -4 16 90 37 178 41 34 2 59 7 57 12 -3 4 13 7 35 4 22 -2
39 0 36 3 -2 4 24 10 59 14 34 3 76 9 92 11 17 3 48 6 70 7 23 2 46 6 52 10 6
4 22 7 34 6 13 0 65 6 114 14 81 13 222 32 300 41 17 2 71 9 120 15 50 6 113
13 140 16 28 2 64 7 80 9 40 7 205 24 230 25 26 1 79 6 135 14 25 4 63 9 85
11 66 9 321 27 331 25 5 -1 29 1 54 5 168 26 795 30 827 5z m2256 -56 c-3 -7
-6 -13 -8 -13 -2 0 -5 6 -8 13 -3 8 1 14 8 14 7 0 11 -6 8 -14z m50 -10 c-7
-2 -19 -2 -25 0 -7 3 -2 5 12 5 14 0 19 -2 13 -5z m1454 -60 c-3 -5 22 -9 55
-10 37 -1 64 -7 69 -14 9 -15 3 -29 -12 -29 -6 0 -8 4 -5 9 3 5 0 11 -7 14
-25 9 -212 6 -218 -4 -3 -6 -12 -11 -20 -12 -8 -2 -20 -6 -26 -10 -7 -5 -13
-6 -13 -3 0 13 56 40 108 51 72 16 74 16 69 8z m-3620 -47 c28 -32 93 -129 93
-138 0 -5 -56 -8 -125 -8 -69 0 -125 -1 -125 -2 1 -5 168 -503 220 -653 28
-82 98 -278 155 -435 57 -157 109 -304 116 -327 l12 -43 106 1 c163 2 156 -7
104 129 -93 245 -403 1187 -403 1226 0 5 36 -52 80 -126 60 -100 88 -161 111
-235 103 -340 306 -932 344 -1007 l24 -47 -52 -5 c-28 -3 -123 -8 -209 -11
-144 -5 -157 -4 -162 12 -2 10 -10 38 -16 63 -7 25 -41 119 -77 210 -99 252
-176 460 -274 740 -126 357 -185 521 -214 590 -40 95 -46 90 123 90 144 0 149
-1 169 -24z m3837 -11 c3 -8 1 -15 -3 -15 -5 0 -11 7 -15 15 -3 8 -1 15 3 15
5 0 11 -7 15 -15z m-2030 -197 c7 -14 24 -25 41 -28 17 -3 31 -12 33 -22 4
-21 -59 -35 -97 -22 -24 9 -26 15 -29 73 l-3 63 22 -21 c12 -11 27 -30 33 -43z
m-3114 38 c0 -2 -7 -9 -15 -16 -12 -10 -15 -10 -15 4 0 9 7 16 15 16 8 0 15
-2 15 -4z m-2369 -84 c19 -37 86 -143 147 -235 62 -92 112 -169 112 -171 0 -3
108 -199 168 -304 23 -41 42 -76 42 -78 0 -2 10 -21 23 -42 13 -20 39 -64 57
-97 18 -33 69 -125 113 -205 85 -154 125 -233 315 -620 160 -326 174 -359 166
-372 -4 -6 -3 -8 2 -5 6 3 20 -18 33 -46 13 -29 47 -101 76 -162 98 -205 115
-247 108 -258 -3 -7 -2 -9 2 -4 5 4 22 -21 38 -55 78 -166 236 -508 294 -638
36 -80 80 -176 98 -215 30 -64 64 -140 145 -325 15 -36 44 -103 63 -150 20
-47 71 -170 115 -275 45 -104 90 -215 102 -245 11 -30 32 -80 47 -110 14 -30
46 -104 70 -165 25 -60 56 -132 68 -160 12 -27 33 -81 45 -120 32 -100 60
-164 90 -210 15 -22 43 -74 63 -116 19 -41 42 -81 51 -88 8 -7 26 -31 40 -54
13 -23 38 -52 56 -65 51 -38 230 -337 230 -384 0 -13 20 -68 105 -293 121
-316 207 -560 260 -740 31 -104 77 -252 101 -327 24 -75 44 -146 44 -157 0
-12 5 -21 11 -21 6 0 9 -7 6 -15 -4 -8 -2 -17 3 -20 5 -3 7 -12 4 -20 -3 -7
-1 -22 6 -32 9 -15 10 -14 4 7 -12 46 7 13 31 -54 67 -184 165 -818 165 -1061
0 -168 -15 -328 -45 -478 -30 -155 -31 -206 -5 -289 15 -46 19 -89 19 -163
l-1 -100 -17 115 c-10 63 -29 149 -44 190 -36 103 -42 185 -24 295 9 50 18
117 21 150 5 50 1 42 -20 -50 -35 -153 -37 -306 -5 -390 21 -54 53 -196 47
-203 -2 -1 -11 16 -21 38 -17 37 -35 53 -35 30 0 -8 50 -133 90 -225 70 -160
80 -189 69 -195 -6 -4 -15 -23 -19 -41 -8 -34 -8 -34 -9 11 -2 57 -17 37 -27
-35 l-7 -50 -18 78 c-11 43 -24 86 -29 95 -15 24 -3 -70 24 -183 20 -85 21
-112 18 -480 -2 -231 -7 -394 -12 -399 -7 -7 -11 -3 -12 10 -1 10 -4 -22 -7
-73 l-6 -92 -56 37 c-31 20 -77 53 -102 72 -45 34 -46 36 -47 93 0 31 8 153
17 270 25 322 19 911 -13 1159 l-7 48 31 0 c17 0 34 5 37 10 5 8 11 7 21 -1
28 -23 14 14 -71 192 -92 191 -105 236 -95 314 5 33 8 40 9 20 2 -39 23 -113
28 -99 2 7 -3 42 -12 79 -8 36 -15 102 -15 145 0 89 -23 283 -45 375 -8 33
-42 197 -75 365 -57 291 -172 778 -226 959 -66 222 -209 651 -230 691 -13 25
-51 79 -83 120 -33 41 -82 104 -108 140 -61 84 -183 229 -248 294 -28 28 -71
74 -95 101 l-45 50 55 -51 c99 -92 387 -388 446 -459 33 -38 67 -79 78 -90 18
-20 18 -20 6 5 -64 126 -424 496 -703 724 -447 363 -596 460 -1132 736 -313
161 -427 224 -524 289 -49 33 -95 62 -103 63 -19 4 -29 37 -18 58 17 31 111
110 210 174 119 79 331 197 592 331 136 69 207 111 215 127 7 13 13 19 13 14
0 -5 3 -7 6 -4 10 10 -14 46 -139 213 -349 464 -694 865 -1182 1375 -328 343
-778 833 -1017 1110 -156 180 -314 346 -322 339 -4 -4 48 -67 115 -140 66 -74
153 -172 192 -219 137 -163 634 -713 788 -872 26 -27 33 -40 25 -48 -8 -8 -7
-10 4 -6 22 9 549 -541 542 -565 -1 -5 2 -8 6 -7 5 2 62 -58 128 -132 65 -74
127 -144 136 -154 10 -10 15 -24 11 -29 -3 -6 -1 -7 4 -4 15 9 36 -20 29 -38
-3 -9 -2 -13 4 -10 12 8 30 -10 116 -111 115 -136 240 -294 411 -520 51 -67
113 -161 113 -171 0 -6 -19 -22 -43 -35 l-42 -24 -108 141 c-172 225 -245 319
-260 335 -7 8 -29 35 -48 60 -19 24 -68 85 -109 135 -42 49 -85 102 -96 117
-24 31 -111 134 -134 158 -8 8 -40 44 -70 80 -30 35 -64 74 -75 86 -11 12 -51
57 -90 100 -38 43 -97 109 -130 145 -114 126 -190 221 -189 235 1 8 -2 12 -6
9 -5 -3 -15 3 -22 13 -7 11 -33 42 -58 69 -25 28 -58 65 -75 84 -61 71 -211
235 -226 249 -9 8 -41 45 -72 82 -56 67 -66 79 -152 178 -27 30 -98 105 -159
165 -263 261 -447 489 -594 735 -65 111 -79 145 -87 223 -6 52 -4 71 11 98 15
28 19 31 21 14 10 -60 37 -163 49 -185 17 -33 17 -10 -1 65 -23 96 -20 126 20
172 l34 40 218 53 c120 29 265 65 323 80 58 16 195 47 305 70 423 87 480 98
495 99 9 0 30 -28 51 -67z m5639 -53 c0 -25 -33 -22 -38 4 -2 12 3 17 17 17
15 0 21 -6 21 -21z m-3405 -29 c3 -5 1 -10 -4 -10 -6 0 -11 5 -11 10 0 6 2 10
4 10 3 0 8 -4 11 -10z m4580 -70 c-3 -5 -12 -10 -18 -10 -7 0 -6 4 3 10 19 12
23 12 15 0z m-40 -50 c3 -5 1 -10 -4 -10 -6 0 -11 5 -11 10 0 6 2 10 4 10 3 0
8 -4 11 -10z m-35 -50 c-11 -16 -26 -33 -32 -36 -7 -4 1 9 16 29 34 44 46 50
16 7z m-4343 -22 c-3 -8 -6 -5 -6 6 -1 11 2 17 5 13 3 -3 4 -12 1 -19z m-3944
-80 c-9 -26 -13 -63 -10 -93 4 -48 4 -49 -9 -20 -7 17 -13 37 -14 46 0 23 31
109 40 109 4 0 1 -19 -7 -42z m8190 -28 c-10 -11 -19 -20 -21 -20 -1 0 2 9 8
20 6 11 15 20 20 20 6 0 2 -9 -7 -20z m-30 -45 c-3 -9 -8 -14 -10 -11 -3 3 -2
9 2 15 9 16 15 13 8 -4z m-4166 -67 c-3 -8 -6 -5 -6 6 -1 11 2 17 5 13 3 -3 4
-12 1 -19z m40 -30 c-3 -8 -6 -5 -6 6 -1 11 2 17 5 13 3 -3 4 -12 1 -19z
m-3998 -63 c0 -5 -6 1 -14 15 -8 14 -14 30 -14 35 0 6 6 -1 14 -15 8 -14 14
-29 14 -35z m4001 14 c0 8 2 12 5 9 3 -3 2 -13 -1 -23 -6 -15 -8 -15 -20 6 -7
13 -13 29 -13 34 0 6 6 -1 14 -15 8 -14 14 -19 15 -11z m-3970 -73 c0 -6 -7
-1 -15 10 -8 10 -15 23 -15 28 0 6 7 1 15 -10 8 -10 15 -23 15 -28z m3447 -22
c-3 -3 -12 -4 -19 -1 -8 3 -5 6 6 6 11 1 17 -2 13 -5z m60 -40 c-3 -3 -12 -4
-19 -1 -8 3 -5 6 6 6 11 1 17 -2 13 -5z m-3436 -69 c7 -13 3 -12 -10 5 -11 14
-21 30 -21 35 0 11 14 -7 31 -40z m3454 -45 c3 -11 3 -24 0 -30 -3 -5 -1 -10
6 -10 7 0 10 -2 7 -5 -13 -13 -33 8 -34 35 -1 34 11 40 21 10z m22 -2 c-3 -8
-6 -5 -6 6 -1 11 2 17 5 13 3 -3 4 -12 1 -19z m-3429 -33 c-3 -3 -9 2 -12 12
-6 14 -5 15 5 6 7 -7 10 -15 7 -18z m3452 -1 c0 -8 -4 -12 -10 -9 -5 3 -10 10
-10 16 0 5 5 9 10 9 6 0 10 -7 10 -16z m9680 -33 c0 -10 -6 -21 -13 -24 -7 -2
-34 -47 -61 -99 -46 -89 -48 -97 -41 -150 5 -40 15 -64 35 -88 35 -41 29 -54
-18 -47 -72 12 -122 71 -122 144 0 23 86 159 147 231 46 54 73 66 73 33z m145
-139 c-4 -41 -9 -71 -12 -68 -3 3 -1 56 3 118 6 73 10 97 12 68 2 -25 1 -78
-3 -118z m-9808 86 c-3 -8 -6 -5 -6 6 -1 11 2 17 5 13 3 -3 4 -12 1 -19z m510
-30 c-3 -8 -6 -5 -6 6 -1 11 2 17 5 13 3 -3 4 -12 1 -19z m-510 -10 c-3 -8 -6
-5 -6 6 -1 11 2 17 5 13 3 -3 4 -12 1 -19z m8947 -53 c-20 -30 -41 -55 -45
-55 -5 0 -8 -3 -7 -7 4 -13 -29 -66 -66 -107 -20 -22 -36 -44 -36 -50 0 -5 -6
-17 -14 -25 -8 -9 -34 -53 -58 -99 -53 -102 -65 -124 -104 -187 -16 -27 -54
-97 -83 -155 -30 -58 -58 -110 -62 -116 -5 -6 -62 -117 -127 -247 -65 -131
-122 -234 -126 -230 -4 4 -4 -1 0 -11 4 -11 3 -17 -2 -14 -5 4 -10 -4 -10 -15
-1 -12 -37 -94 -79 -182 -42 -88 -104 -216 -136 -284 l-59 -123 -31 42 c-33
45 -34 42 22 76 72 45 111 185 75 274 l-17 42 55 106 c30 59 86 179 126 267
40 88 83 184 96 213 13 29 24 54 24 56 0 6 137 296 161 341 109 205 227 418
251 453 19 27 37 42 51 42 12 1 67 12 122 25 55 13 103 24 108 24 4 1 -9 -24
-29 -54z m-8937 13 c-3 -8 -6 -5 -6 6 -1 11 2 17 5 13 3 -3 4 -12 1 -19z
m6374 -254 c24 -25 64 -57 89 -71 l45 -27 -59 -13 c-33 -7 -74 -23 -93 -34
-33 -20 -34 -20 -65 -2 -72 42 -90 138 -48 243 35 89 41 91 65 15 16 -48 34
-78 66 -111z m3313 114 c-4 -13 -13 -32 -21 -43 -14 -19 -15 -19 -9 8 6 25 24
55 34 57 2 0 0 -10 -4 -22z m-1671 -47 c13 -5 30 -15 38 -23 8 -7 27 -21 42
-31 17 -11 40 -42 54 -74 21 -46 25 -65 20 -114 -6 -67 -48 -136 -104 -170
-32 -20 -34 -20 -78 -3 -34 13 -62 15 -115 11 -68 -6 -70 -5 -95 25 -38 45
-55 84 -62 138 l-6 49 44 19 c24 11 62 28 84 38 22 10 46 18 53 17 7 0 11 1 8
4 -3 3 7 22 23 42 16 20 31 46 35 59 8 24 22 27 59 13z m2438 -172 c93 -139
259 -435 325 -582 35 -75 70 -147 78 -159 19 -27 20 -52 4 -81 -32 -59 -29
-111 14 -193 19 -38 41 -86 47 -106 12 -36 11 -39 -45 -120 -32 -46 -71 -102
-88 -125 -17 -22 -38 -54 -47 -70 -9 -15 -38 -62 -65 -103 -26 -41 -83 -138
-126 -215 -86 -153 -93 -185 -56 -238 59 -85 225 -281 272 -324 30 -26 81 -89
114 -139 106 -161 168 -239 269 -334 107 -101 264 -227 376 -303 40 -27 81
-57 92 -67 11 -10 42 -31 70 -46 68 -38 229 -149 292 -201 28 -24 70 -68 93
-98 46 -60 112 -184 104 -197 -3 -4 -1 -8 4 -8 13 0 33 -50 26 -62 -4 -6 -3
-8 3 -5 5 3 37 -52 70 -122 34 -71 77 -145 97 -165 19 -21 38 -48 42 -60 4
-11 49 -103 101 -204 51 -101 91 -188 87 -194 -4 -6 -3 -8 3 -5 13 8 26 -20
16 -35 -3 -6 -1 -8 4 -5 13 8 26 -20 16 -35 -3 -6 -1 -8 4 -5 14 9 56 -61 47
-75 -4 -6 -2 -8 3 -5 14 9 37 -19 27 -34 -4 -7 -3 -9 4 -5 11 7 32 -19 80
-101 17 -29 39 -64 48 -78 l17 -26 -49 29 c-27 16 -48 34 -47 40 1 5 -5 9 -15
8 -9 0 -16 5 -14 12 1 8 -2 11 -7 7 -6 -3 -42 15 -82 41 -80 51 -421 224 -442
224 -7 0 -17 4 -23 9 -5 5 -26 14 -46 21 -21 6 -38 16 -38 21 0 6 -4 8 -10 4
-5 -3 -17 -1 -27 4 -30 17 -232 87 -358 125 -224 66 -332 89 -650 136 -140 20
-379 29 -555 21 -96 -5 -176 -8 -178 -6 -5 5 450 153 527 170 9 2 41 11 71 20
268 75 898 161 1119 153 58 -2 90 1 88 7 -6 17 -221 17 -412 0 -357 -31 -697
-94 -982 -181 -100 -31 -188 -52 -194 -48 -7 4 -9 3 -6 -3 8 -12 -59 -36 -75
-27 -7 4 -10 3 -5 -1 4 -5 -65 -34 -153 -66 -89 -31 -175 -64 -193 -72 -18 -8
-66 -29 -107 -47 -41 -18 -136 -61 -211 -96 -75 -35 -142 -64 -149 -64 -6 0
-27 -12 -46 -26 -19 -15 -37 -25 -39 -22 -5 5 145 147 298 282 78 69 107 102
107 121 0 18 -104 -71 -370 -314 -63 -58 -132 -119 -153 -136 -20 -16 -65 -56
-99 -87 -51 -49 -64 -56 -77 -45 -11 9 -13 9 -8 0 5 -7 -10 -34 -35 -66 -24
-30 -70 -87 -102 -128 -59 -73 -190 -222 -253 -288 -18 -19 -33 -40 -33 -48 0
-7 -4 -13 -10 -13 -5 0 -10 -6 -10 -12 0 -7 -16 -31 -35 -52 -19 -22 -35 -42
-35 -45 0 -3 -18 -25 -39 -49 l-37 -42 -13 52 c-21 85 -28 123 -61 318 -17
102 -37 222 -46 268 l-15 83 47 42 47 43 8 85 c14 157 30 554 24 606 -5 41
-14 60 -36 83 -17 16 -35 30 -40 30 -10 0 -13 460 -3 496 5 19 11 20 57 17 29
-2 63 -7 77 -10 23 -5 24 -6 5 -13 -18 -8 -18 -9 5 -11 14 -1 36 -3 50 -5 112
-13 175 -1 209 40 8 9 19 16 25 16 8 0 20 64 34 187 40 332 118 656 259 1088
259 793 634 1554 975 1978 26 33 53 75 59 95 14 41 30 62 44 58 6 -1 35 -40
66 -87z m-3896 -33 c90 -38 135 -100 135 -185 0 -49 -30 -118 -49 -113 -6 1
-10 -4 -8 -10 1 -7 -18 -23 -43 -35 -132 -67 -269 19 -270 170 0 83 42 146
117 172 49 18 76 18 118 1z m1112 -385 c-5 -19 -7 -50 -4 -68 6 -32 0 -39 -93
-132 -250 -250 -463 -391 -687 -456 -111 -32 -114 -32 -100 4 9 25 21 32 98
55 227 68 433 202 658 429 l94 95 -11 58 c-7 31 -12 74 -12 94 0 45 -9 55 -26
32 -12 -15 -13 -11 -7 28 3 25 9 47 12 50 3 3 22 26 41 51 l35 47 6 -127 c3
-69 1 -141 -4 -160z m-1702 269 c10 -16 -5 -68 -21 -74 -40 -15 -59 30 -27 66
18 20 38 23 48 8z m3345 -2 c-1 -7 -14 -38 -30 -68 -71 -132 -179 -360 -195
-413 l-18 -58 49 -44 49 -43 -28 -11 c-41 -16 -56 -14 -92 14 -81 61 -96 162
-42 266 61 117 107 185 163 240 31 30 72 71 92 92 38 39 52 46 52 25z m-2420
-93 c0 -18 -115 -315 -122 -315 -4 0 -10 15 -13 34 -5 27 4 64 45 174 49 129
54 140 71 129 11 -7 19 -16 19 -22z m1068 -21 c41 -8 108 -66 132 -115 25 -47
26 -128 4 -172 -9 -18 -34 -49 -56 -69 l-39 -38 -37 16 c-69 31 -120 39 -165
26 -38 -10 -43 -9 -59 11 -38 48 -50 88 -46 152 9 137 123 218 266 189z m-879
-88 c10 -12 2 -39 -40 -133 -90 -205 -108 -253 -97 -253 38 0 312 156 333 190
9 15 76 13 69 -2 -8 -19 -159 -131 -239 -177 -66 -38 -252 -108 -261 -98 -3 2
12 40 31 83 33 71 119 270 158 367 17 40 28 45 46 23z m-4812 -53 c-3 -10 -8
-35 -12 -56 l-6 -38 -45 37 c-24 20 -44 40 -44 44 0 4 19 12 43 17 63 16 69
15 64 -4z m50 -20 c-3 -10 -5 -4 -5 12 0 17 2 24 5 18 2 -7 2 -21 0 -30z
m3558 2 c25 -19 63 -39 84 -45 35 -9 39 -14 51 -64 39 -162 -50 -286 -206
-286 -53 0 -69 5 -110 33 -58 38 -92 97 -100 170 -8 89 54 185 141 215 57 20
92 14 140 -23z m3633 -140 c-2 -13 -13 5 -31 48 -18 44 -25 77 -21 90 6 18 12
8 31 -48 13 -38 22 -79 21 -90z m-2998 56 c7 -15 6 -24 -6 -36 -22 -22 -48
-15 -52 14 -6 39 39 56 58 22z m2907 -71 c-7 -95 -24 -150 -59 -187 -35 -37
-38 -26 -8 30 27 51 60 171 60 221 0 15 3 26 6 26 4 0 4 -41 1 -90z m-3093
-28 c-5 -31 -22 -60 -69 -114 -64 -75 -161 -164 -224 -207 l-35 -24 -39 44
c-58 65 -61 74 -30 90 22 11 27 12 31 1 2 -7 14 -25 27 -40 l23 -26 43 36 c68
55 169 157 224 225 27 34 51 61 53 59 1 -2 0 -22 -4 -44z m3204 -17 c-3 -3 -9
2 -12 12 -6 14 -5 15 5 6 7 -7 10 -15 7 -18z m2956 -121 c-5 -47 -38 -105 -87
-154 -13 -14 -40 -46 -60 -71 -65 -86 -81 -104 -228 -249 -143 -142 -199 -194
-209 -195 -3 0 -15 -10 -27 -22 -13 -13 -30 -23 -38 -23 -8 0 -15 -4 -15 -10
0 -5 -7 -10 -15 -10 -8 0 -15 -7 -15 -15 0 -8 -4 -15 -9 -15 -4 0 -34 -25 -65
-55 -31 -30 -56 -49 -56 -42 0 18 28 75 41 83 5 3 28 31 51 62 51 70 69 84 85
70 9 -7 13 -7 13 2 0 10 3 10 15 0 11 -9 15 -9 15 -1 0 7 5 9 12 5 6 -4 8 -3
5 3 -4 6 -18 9 -33 7 -25 -2 -25 -2 -8 17 9 10 21 16 27 12 6 -3 7 -1 3 5 -3
6 3 18 16 26 19 14 23 14 35 -2 13 -15 13 -15 4 3 -8 18 2 33 78 108 49 48 94
87 102 85 7 -2 13 6 14 17 0 12 6 20 17 19 9 -1 15 4 12 10 -6 16 115 138 128
130 7 -4 8 -2 4 4 -9 15 83 124 97 115 6 -3 7 -1 3 6 -4 6 1 21 13 34 11 12
32 37 46 55 15 17 29 32 31 32 2 0 2 -21 -2 -46z m-4638 -41 c10 -37 -14 -75
-45 -71 -21 2 -27 9 -29 35 -6 61 60 94 74 36z m-1161 -2 c-3 -6 -14 -11 -23
-11 -13 0 -13 2 4 14 21 15 30 14 19 -3z m2170 -71 c17 -32 19 -50 7 -50 -7 0
-32 57 -32 73 0 15 10 6 25 -23z m-3320 -9 c6 -19 -8 -66 -27 -88 -28 -34 -52
43 -28 88 14 24 47 25 55 0z m6689 -83 c-21 -24 -42 -42 -46 -40 -5 1 -8 -2
-8 -8 0 -13 -63 -80 -75 -80 -5 0 -3 5 5 11 13 9 13 10 0 6 -8 -2 -14 -10 -12
-17 4 -18 -29 -52 -45 -46 -7 3 -15 0 -19 -6 -4 -7 -3 -8 4 -4 7 4 12 3 12 -2
0 -13 -96 -102 -110 -102 -6 0 -8 -4 -5 -10 6 -9 -8 -14 -28 -11 -5 1 -11 -8
-14 -19 -3 -11 -10 -17 -17 -13 -6 3 -8 2 -3 -2 4 -5 0 -17 -10 -27 -16 -17
-17 -17 -37 -1 -20 17 -20 17 -7 1 7 -10 9 -18 4 -18 -5 0 -35 -19 -66 -42
-118 -90 -213 -152 -249 -164 -10 -4 -18 -10 -18 -15 0 -5 -7 -9 -15 -9 -8 0
-15 -4 -15 -9 0 -5 -8 -11 -17 -15 -10 -3 -25 -10 -33 -15 -8 -5 -46 -24 -85
-42 -38 -18 -88 -45 -110 -58 -22 -14 -42 -26 -45 -26 -3 -1 -32 -14 -65 -30
-38 -18 -77 -28 -105 -29 -25 0 -37 -2 -27 -4 26 -5 10 -22 -21 -21 -15 0 -21
3 -14 6 6 2 12 9 12 14 0 6 -5 7 -12 3 -7 -4 -8 -3 -4 4 4 7 15 12 25 12 10 0
24 7 31 15 7 9 19 14 26 11 7 -3 16 0 20 6 5 7 2 8 -7 3 -10 -6 -11 -5 -3 4 6
7 20 13 32 14 11 0 19 4 17 7 -2 4 18 17 45 31 27 13 50 28 50 33 0 4 7 6 15
2 8 -3 15 -1 15 5 0 11 71 55 83 51 4 -1 7 2 7 8 0 5 8 7 18 3 9 -3 14 -2 10
2 -8 9 31 42 45 37 4 -1 7 3 7 9 0 6 7 8 16 5 8 -3 13 -2 10 2 -3 4 4 14 16
21 16 10 19 10 13 -1 -4 -7 4 -1 19 15 27 27 54 38 40 15 -4 -7 -3 -8 5 -4 6
4 8 12 5 18 -5 8 -1 9 12 4 10 -4 15 -4 12 0 -11 10 40 46 53 38 7 -4 9 -3 6
4 -7 9 82 72 102 72 5 0 14 7 21 15 7 9 19 14 27 11 8 -3 12 -2 9 3 -3 5 1 14
9 21 8 7 15 10 15 6 0 -3 9 3 20 14 12 12 26 17 36 13 11 -4 15 -2 11 5 -4 6
7 20 24 33 25 18 35 20 49 11 14 -9 22 -7 36 11 l19 22 -22 -18 c-12 -11 -24
-14 -27 -9 -8 13 68 74 85 70 7 -2 13 3 14 10 0 16 56 53 68 45 6 -3 7 -1 3 5
-3 6 8 21 26 33 18 13 35 27 36 31 2 4 11 8 20 8 8 0 13 3 9 6 -4 5 89 91 102
93 2 1 -14 -18 -35 -41z m-5664 -8 c0 -19 -5 -30 -14 -30 -17 0 -28 24 -20 45
11 27 34 17 34 -15z m2327 -2 c-3 -8 -6 -5 -6 6 -1 11 2 17 5 13 3 -3 4 -12 1
-19z m-6713 -34 c3 -8 2 -12 -4 -9 -6 3 -10 10 -10 16 0 14 7 11 14 -7z m6772
-180 c10 -55 -21 -278 -37 -268 -14 8 -49 -15 -51 -34 -1 -9 -4 10 -7 43 l-6
60 -46 -90 c-60 -116 -101 -214 -101 -242 0 -12 12 -33 28 -46 l28 -24 -23
-12 c-19 -11 -31 -9 -76 13 -71 35 -82 63 -60 142 19 63 65 148 126 229 20 28
65 95 99 150 34 55 67 103 74 107 27 18 45 8 52 -28z m154 10 c-88 -42 -100
-45 -94 -29 3 8 9 14 12 13 7 -1 49 14 87 31 11 6 27 10 35 10 8 0 -10 -11
-40 -25z m-1352 -15 c3 -29 -18 -52 -41 -43 -38 14 -24 78 16 72 15 -2 23 -11
25 -29z m-2448 -8 c13 -26 13 -43 -3 -65 -17 -23 -44 -12 -50 22 -10 52 30 84
53 43z m5670 -43 c0 -9 -7 -21 -16 -26 -8 -5 -16 -15 -17 -23 -4 -23 -18 -40
-28 -33 -5 3 -9 2 -8 -3 3 -20 -2 -34 -22 -54 -11 -11 -30 -39 -43 -62 -13
-23 -31 -58 -42 -77 -10 -19 -22 -37 -25 -40 -5 -4 -40 -65 -68 -120 -4 -8
-20 -39 -35 -68 -57 -113 -93 -249 -62 -239 6 2 18 -14 28 -35 9 -21 23 -38
30 -38 10 0 10 -2 -1 -9 -7 -5 -10 -14 -6 -21 6 -9 10 -9 17 1 6 10 7 6 2 -11
-4 -14 -11 -26 -15 -28 -5 -2 -9 -8 -9 -13 0 -6 8 -6 19 1 26 14 26 14 27 -21
l1 -32 -19 24 c-11 13 -17 17 -13 9 4 -8 -7 1 -24 20 -17 19 -31 43 -31 53 0
9 -5 17 -10 17 -12 0 -68 61 -87 94 -14 24 -16 39 -5 32 4 -3 7 8 6 24 -1 15
7 43 19 62 11 18 33 59 48 90 36 74 69 119 83 111 7 -4 7 -1 -1 8 -9 11 -1 29
42 89 30 41 59 74 65 72 6 -1 9 2 5 7 -7 12 46 90 62 91 6 0 15 5 19 12 4 7 3
8 -5 4 -6 -4 2 15 19 43 18 28 36 51 42 51 6 0 5 -8 -3 -17 -13 -16 -12 -17 4
-4 12 9 14 17 7 26 -15 19 9 38 29 22 14 -10 14 -10 3 4 -7 9 -9 24 -6 34 5
13 9 14 15 3 5 -7 9 -21 9 -30z m-1900 -140 c26 -57 51 -114 55 -128 l7 -25
-21 27 c-25 31 -87 160 -97 201 -12 53 8 26 56 -75z m-2482 80 c7 -7 12 -24
12 -38 0 -51 -52 -69 -72 -25 -22 49 25 98 60 63z m2083 -92 c-12 -14 -127
-86 -138 -86 -4 0 -15 -7 -25 -17 -10 -9 -21 -14 -24 -11 -6 7 8 17 116 87 73
48 95 56 71 27z m-3599 -51 c14 -30 -3 -55 -38 -55 -25 0 -39 28 -29 60 9 30
52 26 67 -5z m-2826 -10 c96 -28 173 -126 162 -204 -3 -21 -1 -28 9 -24 25 10
13 -14 -14 -27 -36 -18 -97 -84 -120 -129 -10 -20 -22 -39 -28 -43 -16 -12
-125 -9 -125 3 0 5 -4 7 -10 4 -25 -15 -103 51 -136 115 -26 52 -24 147 5 193
43 70 121 121 192 126 8 1 38 -6 65 -14z m6062 -90 l22 -45 47 30 c26 17 52
30 57 30 16 -1 -43 -50 -59 -50 -25 0 -26 -38 -4 -92 12 -29 27 -58 32 -65 5
-7 6 -17 2 -23 -3 -5 -1 -10 6 -10 7 0 9 -3 6 -7 -4 -3 -1 -16 6 -27 19 -30
29 -58 17 -51 -6 3 -10 12 -10 20 0 7 -4 15 -9 17 -5 2 -30 47 -55 101 l-45
97 -43 -27 c-24 -16 -66 -44 -93 -62 -30 -21 -44 -27 -35 -15 21 26 63 64 73
64 5 0 25 12 45 27 20 15 39 29 41 30 3 2 -5 24 -17 48 -24 50 -26 55 -14 55
4 0 18 -20 30 -45z m-588 -39 c0 -31 -36 -64 -52 -48 -18 18 -17 65 1 79 22
16 51 -2 51 -31z m-910 -16 c51 -26 78 -55 101 -108 21 -49 26 -128 7 -116 -7
4 -8 3 -4 -4 12 -19 -34 -90 -78 -119 -35 -24 -51 -28 -112 -28 -58 0 -77 4
-106 24 -100 69 -121 204 -47 294 27 33 36 37 77 37 27 1 62 9 82 20 43 24 34
24 80 0z m-1924 -9 c-4 -5 -3 -11 1 -13 17 -7 62 -76 55 -83 -4 -5 -2 -5 5 -1
6 3 26 -2 43 -13 27 -16 29 -20 14 -24 -17 -4 -17 -6 4 -12 55 -18 1 -161 -78
-205 -34 -18 -60 -25 -107 -25 -54 0 -66 4 -100 31 -54 43 -83 98 -83 157 0
87 41 144 126 177 52 19 129 26 120 11z m4161 -96 c-4 -54 -11 -82 -26 -101
-25 -32 -25 -32 -6 30 8 27 15 64 15 82 0 34 8 64 18 64 2 0 2 -34 -1 -75z
m-6456 -20 c55 -20 111 -63 103 -78 -4 -7 -4 -9 1 -5 12 11 44 -30 57 -73 11
-38 11 -39 -35 -82 -53 -49 -86 -115 -87 -170 0 -45 -22 -57 -106 -57 -214 0
-320 254 -169 405 66 67 153 89 236 60z m-4613 -109 c37 -12 68 -48 106 -121
20 -39 36 -71 36 -72 0 -10 -23 1 -49 23 -39 32 -39 26 0 -46 44 -83 131 -184
184 -215 49 -29 61 -63 25 -72 -15 -4 -19 -11 -15 -24 6 -19 -12 -24 -70 -20
-49 4 -165 173 -224 328 -13 32 -27 67 -33 78 -16 29 -24 160 -9 151 6 -4 11
-1 11 6 0 9 3 10 8 2 4 -6 17 -15 30 -18z m6646 -30 c8 -39 50 -99 80 -115 42
-23 24 -123 -31 -180 -102 -106 -263 -86 -328 39 -20 39 -25 119 -10 155 36
88 115 136 217 133 65 -2 66 -2 72 -32z m3097 19 c16 -9 27 -20 24 -25 -3 -6
0 -7 8 -4 30 11 87 -77 87 -135 0 -64 -51 -136 -117 -165 -39 -17 -100 -16
-89 2 2 4 -14 8 -37 9 -117 7 -163 176 -74 272 56 59 136 78 198 46z m-9061
-116 c15 -28 5 -23 -15 7 -9 15 -12 23 -6 20 6 -4 16 -16 21 -27z m8254 19
c-4 -7 -3 -8 4 -4 28 17 110 -53 136 -116 29 -68 13 -143 -42 -201 -39 -42
-75 -57 -135 -59 -94 -2 -162 49 -187 141 -20 77 8 171 52 171 39 0 97 23 130
51 34 29 55 38 42 17z m1590 -24 c3 -8 2 -12 -4 -9 -6 3 -10 10 -10 16 0 14 7
11 14 -7z m-10116 -152 c63 -61 72 -74 72 -105 0 -20 -5 -39 -12 -43 -6 -4 -8
-3 -5 3 7 11 -13 83 -23 83 -4 0 -42 39 -86 87 -87 96 -60 83 54 -25z m4476
102 c43 -17 39 -94 -5 -94 -49 0 -80 67 -41 89 20 12 25 13 46 5z m5756 -191
c0 -23 -17 -14 -28 15 -10 26 -34 95 -46 137 -4 11 12 -16 34 -60 22 -43 40
-85 40 -92z m-4756 128 c20 -13 33 -27 30 -33 -4 -6 -2 -8 4 -4 16 10 23 -9
26 -72 2 -34 11 -73 23 -98 l21 -40 -28 -45 c-65 -106 -154 -140 -265 -103
-183 63 -196 321 -20 406 54 26 158 20 209 -11z m236 -16 c20 -25 8 -50 -25
-50 -31 0 -43 20 -31 51 7 18 40 18 56 -1z m3400 -63 c0 -4 -22 -16 -49 -27
-47 -18 -51 -23 -90 -104 -22 -47 -52 -113 -65 -146 l-25 -60 -1 42 c0 23 -3
49 -6 58 -4 10 -2 15 7 13 7 -2 31 31 56 77 23 44 52 96 63 115 12 19 30 52
42 72 l21 37 23 -35 c13 -19 24 -38 24 -42z m-8743 28 c28 0 52 -15 41 -25 -2
-2 -30 3 -63 11 -33 7 -84 14 -112 14 -47 0 -63 7 -48 21 2 3 37 0 77 -7 40
-7 87 -13 105 -14z m4488 -66 c27 -11 38 -53 20 -80 -18 -28 -51 -31 -77 -7
-22 20 -23 51 -1 75 17 19 31 22 58 12z m4289 -6 c-6 -10 -4 -10 7 0 18 16 34
15 77 -5 72 -34 102 -79 102 -152 0 -73 -34 -131 -93 -160 l-44 -21 -58 30
c-31 16 -69 30 -84 30 -38 0 -65 49 -65 115 1 67 23 106 80 144 48 32 91 42
78 19z m1099 -69 c-8 -8 -13 -7 -18 2 -5 8 -4 10 3 5 7 -4 12 -2 12 5 0 7 3 9
7 6 4 -4 2 -12 -4 -18z m-1508 -13 c50 -21 77 -49 69 -72 -5 -15 -4 -16 5 -4
11 16 12 16 29 -23 17 -39 14 -106 -6 -147 -9 -19 -37 -49 -62 -68 -41 -32
-48 -34 -105 -30 -51 3 -69 9 -102 36 -48 38 -73 85 -73 140 0 63 17 100 50
107 15 3 50 22 77 41 53 38 68 40 118 20z m-8175 -171 c11 -49 20 -90 20 -91
0 -4 -61 -26 -64 -23 -4 4 -10 230 -7 269 3 32 23 -29 51 -155z m-405 138 c-9
-39 -47 -124 -52 -119 -4 4 49 146 55 146 2 0 1 -12 -3 -27z m10085 -49 c0
-16 -88 -114 -102 -114 -16 0 -7 16 37 73 46 58 65 70 65 41z m-1263 -89 c10
-18 7 -23 -33 -42 -24 -12 -44 -20 -44 -19 0 4 22 59 43 109 l12 27 6 -27 c3
-16 10 -37 16 -48z m7605 8 c66 -65 82 -93 55 -93 -8 0 -40 -9 -73 -19 -32
-10 -99 -31 -149 -46 -152 -46 -226 -72 -237 -83 -11 -11 -2 -185 37 -712 8
-107 24 -337 35 -510 11 -173 27 -405 35 -515 47 -618 55 -725 55 -750 l0 -28
-92 7 c-51 4 -223 23 -383 42 -252 31 -404 58 -735 130 -36 7 -73 14 -82 14
-17 0 -17 -1 0 -21 9 -11 30 -27 45 -35 15 -8 25 -19 22 -24 -3 -5 7 -17 22
-27 15 -10 31 -21 34 -26 3 -4 14 -5 24 -1 15 6 17 4 13 -14 -6 -22 8 -28 50
-23 6 1 12 -7 12 -19 0 -13 7 -20 19 -20 11 0 27 -10 36 -22 12 -19 17 -20 24
-9 7 11 12 10 22 -8 10 -14 24 -21 46 -21 62 0 123 -38 123 -76 0 -11 9 -29
20 -39 11 -10 20 -29 20 -41 0 -22 -4 -24 -47 -21 -47 2 -48 1 -45 -25 2 -16
-2 -28 -9 -28 -7 0 -6 -8 4 -24 26 -39 3 -59 -85 -72 -59 -9 -79 -9 -107 2
-41 17 -186 112 -221 145 -14 13 -29 25 -33 27 -26 9 -86 59 -82 69 2 7 -2 10
-9 7 -7 -3 -19 3 -27 12 -12 16 -12 17 4 11 11 -4 16 -3 12 4 -4 6 -13 8 -21
5 -17 -7 -53 23 -203 164 -68 65 -134 148 -136 173 -2 12 -7 21 -13 20 -14 -3
-33 21 -35 45 -1 13 -6 18 -17 14 -13 -5 -13 -4 -1 12 10 12 17 14 25 6 5 -5
15 -10 21 -10 9 1 -23 24 -35 25 -19 2 -58 39 -99 95 -54 74 -118 186 -111
194 3 3 35 -1 70 -9 36 -8 198 -44 360 -79 162 -36 446 -97 630 -135 184 -39
418 -88 520 -110 102 -22 188 -37 192 -33 4 4 3 88 -2 187 -6 99 -17 335 -25
525 -9 190 -27 530 -40 755 -13 226 -27 486 -31 578 -6 162 -6 169 14 187 12
11 32 20 46 20 28 0 40 25 31 63 -5 19 0 30 25 51 17 14 36 26 42 26 12 0 56
33 106 80 38 35 191 98 242 99 17 1 44 -18 92 -66z m-6667 19 c-61 -53 -185
-130 -185 -115 0 9 46 41 139 95 47 28 62 34 46 20z m-9844 -33 c-5 -13 -10
-19 -10 -12 -1 15 10 45 15 40 3 -2 0 -15 -5 -28z m-271 -33 c19 -1 76 -3 125
-4 106 -3 123 -9 104 -41 -16 -24 -34 -29 -25 -6 4 12 -4 15 -37 15 -23 1 -64
3 -92 5 -27 2 -82 6 -121 9 -95 8 -135 16 -127 28 3 7 30 8 72 3 36 -4 82 -8
101 -9z m9085 -43 c-5 -10 -7 -21 -7 -25 1 -5 -3 -8 -9 -8 -7 0 -9 9 -5 23 3
12 6 29 6 37 0 10 3 11 11 3 7 -7 8 -19 4 -30z m210 17 c37 -14 87 -70 104
-115 8 -23 11 -53 7 -80 -7 -45 -52 -109 -69 -98 -6 3 -7 1 -3 -5 6 -10 -68
-52 -93 -52 -6 0 -8 19 -4 49 13 113 -30 203 -113 233 -19 6 -34 15 -34 18 0
3 19 18 42 33 45 29 113 36 163 17z m1027 -24 c-2 -9 -17 -40 -33 -68 -39 -66
-46 -102 -25 -124 22 -21 16 -38 -16 -42 -39 -5 -70 27 -70 72 0 36 31 84 106
163 24 25 42 24 38 -1z m-9981 -45 c28 -29 37 -51 21 -51 -4 0 -13 5 -20 12
-21 21 -25 0 -12 -65 7 -35 10 -72 7 -81 -6 -16 -46 -37 -58 -30 -3 2 -12 37
-19 78 -10 60 -10 79 0 90 6 9 10 21 7 28 -6 19 11 48 29 48 9 0 29 -13 45
-29z m9529 2 c0 -5 -58 -46 -128 -93 -70 -47 -129 -87 -132 -90 -8 -8 -124
-86 -140 -94 -36 -18 124 102 300 225 83 58 100 67 100 52z m-9669 -97 c-6
-35 -11 -83 -11 -107 0 -49 -9 -89 -19 -89 -12 0 -11 43 4 140 21 129 28 160
33 137 2 -10 -1 -47 -7 -81z m10353 -51 c-7 -49 -26 -81 -53 -88 -19 -5 -19
-4 -5 18 21 32 43 120 45 175 l1 45 9 -55 c5 -30 6 -73 3 -95z m-10090 106
c-2 -3 -12 3 -22 13 -16 17 -16 18 5 5 12 -7 20 -15 17 -18z m8540 -96 c7 -20
-18 -49 -38 -42 -19 7 -22 53 -3 60 17 6 34 -2 41 -18z m-9351 -37 c18 -13 39
-28 47 -35 52 -43 244 -194 254 -201 31 -20 39 -41 26 -73 -35 -83 56 -186
262 -296 81 -44 147 -86 164 -106 16 -19 111 -119 211 -223 160 -166 257 -277
343 -389 22 -29 158 -205 178 -230 4 -5 37 -50 72 -100 113 -157 179 -235 194
-229 16 6 57 -42 50 -60 -3 -7 4 -20 15 -30 16 -15 33 -18 85 -14 l64 4 20
-41 c11 -22 62 -100 114 -174 90 -130 130 -192 252 -397 76 -128 123 -202 154
-239 14 -16 31 -43 39 -60 8 -16 29 -57 48 -90 34 -60 52 -95 138 -275 67
-140 75 -215 42 -381 -13 -69 -31 -143 -39 -164 -14 -40 -14 -40 -24 -15 -6
14 -32 72 -60 130 -27 58 -52 123 -56 145 -21 115 -150 437 -242 606 -59 110
-153 244 -239 344 -28 33 -68 92 -89 130 -35 64 -105 175 -209 330 -50 74 -46
69 -53 63 -5 -6 102 -187 160 -268 18 -25 45 -67 61 -95 l29 -50 -44 40 c-129
116 -333 226 -424 229 -48 1 -51 -1 -54 -25 -5 -46 142 -243 237 -315 76 -58
68 -37 -20 51 -46 47 -83 90 -81 95 1 6 -2 10 -8 10 -10 0 -110 137 -110 152
0 22 109 -6 200 -52 60 -30 152 -93 220 -149 57 -46 145 -143 145 -158 0 -16
35 -58 35 -43 1 14 11 3 61 -58 5 -7 7 -17 3 -24 -4 -6 -3 -8 3 -5 15 9 87
-98 78 -114 -5 -7 -4 -10 3 -6 6 4 24 -15 41 -43 38 -61 129 -252 161 -335 12
-33 26 -69 31 -80 29 -70 66 -195 59 -200 -12 -7 -23 13 -14 27 4 7 3 8 -4 4
-6 -3 -16 3 -22 15 -9 17 -9 20 0 14 9 -5 10 -1 5 16 -4 13 -11 26 -14 29 -4
3 -18 21 -31 40 -14 19 -33 44 -43 55 -19 20 -19 19 -3 -15 l17 -35 -36 39
c-19 22 -37 37 -39 35 -2 -2 24 -47 59 -99 155 -235 165 -253 165 -286 0 -18
5 -36 10 -39 6 -3 10 0 10 7 0 27 49 -61 84 -152 21 -52 49 -121 62 -153 27
-67 79 -266 88 -344 4 -28 13 -67 20 -85 22 -51 46 -267 45 -396 0 -85 -6
-136 -20 -187 -29 -102 -31 -118 -17 -141 54 -89 71 -138 112 -316 24 -106 50
-227 56 -268 7 -41 30 -158 51 -260 84 -395 101 -480 126 -630 41 -250 36
-540 -9 -540 -5 0 -6 -9 -3 -21 6 -19 5 -20 -17 -8 -12 6 -37 24 -55 40 -17
15 -46 30 -65 34 -18 4 -37 11 -43 15 -19 14 -117 32 -146 26 -16 -3 -41 -1
-57 5 -45 17 -258 20 -387 4 -217 -26 -358 -29 -504 -11 -75 10 -234 18 -365
20 -127 2 -255 9 -284 16 -44 10 -72 9 -180 -9 -137 -21 -193 -26 -547 -41
-221 -10 -324 -22 -483 -56 -71 -16 -75 -16 -130 5 -58 23 -67 21 -84 -18 -3
-7 -164 -44 -243 -57 -22 -3 -91 -21 -154 -39 -114 -34 -181 -70 -209 -113
l-16 -24 -18 22 c-16 20 -18 44 -18 229 0 358 -45 921 -96 1201 -14 74 -34
189 -44 255 -10 66 -31 170 -45 230 -15 61 -33 146 -41 190 -8 44 -39 177 -69
295 -87 347 -171 798 -160 858 6 30 9 32 48 33 l42 1 -40 9 c-36 9 -43 15 -67
67 -27 56 -39 121 -68 382 -6 52 -17 138 -25 190 -24 157 -36 464 -25 665 12
222 45 425 115 700 64 253 121 432 267 830 124 341 181 464 247 538 66 75 107
136 131 198 12 30 28 64 36 76 17 27 172 133 194 133 33 0 119 39 168 76 41
30 56 50 72 92 29 77 48 111 77 138 32 30 47 30 86 2z m118 -45 c13 -16 12
-17 -3 -4 -17 13 -22 21 -14 21 2 0 10 -8 17 -17z m9182 -158 c20 -8 48 -15
62 -15 22 0 25 -4 25 -39 0 -25 -5 -41 -15 -45 -8 -3 -15 -13 -15 -22 0 -9
-11 -29 -25 -46 -15 -18 -25 -42 -25 -61 0 -31 -2 -32 -83 -55 -59 -17 -88
-30 -105 -50 l-23 -27 15 35 c36 90 105 238 124 270 26 42 28 57 5 39 -14 -12
-142 -267 -268 -534 -40 -85 -146 -327 -165 -375 -18 -47 -29 -60 -52 -60 -22
0 -20 12 19 100 14 30 26 64 29 74 8 42 28 92 40 101 12 10 43 84 132 320 27
72 87 209 133 306 l84 177 36 -39 c19 -21 52 -45 72 -54z m145 -22 c-21 -5
-26 -63 -5 -63 8 0 7 -3 -3 -9 -21 -14 -30 -4 -30 34 0 33 10 44 40 43 10 0 9
-2 -2 -5z m-5 -100 c-3 -7 -16 -13 -29 -13 -13 0 -24 6 -24 13 0 7 12 12 29
12 19 0 27 -4 24 -12z m-8993 -104 c97 -70 159 -105 565 -314 267 -138 467
-252 630 -360 149 -99 307 -219 314 -238 2 -6 -9 -1 -25 11 -67 52 -77 57 -82
44 -3 -10 -8 -8 -18 6 -7 11 -26 22 -41 25 -15 3 -43 20 -61 36 -18 17 -35 31
-37 31 -3 0 -40 25 -82 56 -43 31 -154 99 -248 151 -93 52 -210 119 -260 148
-137 80 -226 126 -389 201 -83 37 -182 89 -221 115 -70 46 -135 111 -135 137
0 16 6 13 90 -49z m9030 -23 c0 -9 -7 -12 -20 -9 -11 3 -20 12 -20 20 0 8 -6
13 -12 10 -7 -2 -12 -10 -11 -16 2 -6 -8 -10 -22 -9 -38 3 -32 42 10 66 17 10
24 7 48 -18 15 -17 27 -37 27 -44z m-137 29 c-3 -9 -8 -14 -10 -11 -3 3 -2 9
2 15 9 16 15 13 8 -4z m270 -42 c-7 -2 -21 -2 -30 0 -10 3 -4 5 12 5 17 0 24
-2 18 -5z m-8718 -303 c3 -6 -1 -7 -9 -4 -18 7 -21 14 -7 14 6 0 13 -4 16 -10z
m8134 -230 c12 -85 23 -164 24 -175 2 -19 -3 -20 -103 -17 -57 2 -106 4 -107
6 -2 1 27 74 63 162 37 87 71 172 77 187 16 39 20 24 46 -163z m-7969 44 c0
-2 -7 -4 -15 -4 -8 0 -15 4 -15 10 0 5 7 7 15 4 8 -4 15 -8 15 -10z m7791
-151 c-12 -20 -14 -14 -5 12 4 9 9 14 11 11 3 -2 0 -13 -6 -23z m-7229 -74 c5
-16 -15 -146 -24 -155 -5 -4 -8 15 -8 42 0 27 -4 55 -8 61 -4 7 -6 28 -4 48 4
30 7 33 22 25 10 -5 20 -15 22 -21z m200 -197 c43 -118 63 -152 89 -152 18 0
28 -19 12 -21 -33 -3 -59 -11 -61 -19 -6 -15 -40 23 -57 63 -24 57 -56 203
-49 221 12 32 29 8 66 -92z m8952 -107 c0 -176 -6 -215 -31 -215 -15 0 -15 16
-9 163 3 89 9 182 13 206 5 37 7 41 17 25 7 -12 11 -79 10 -179z m-80 8 c-8
-230 -13 -328 -20 -350 -6 -21 -7 -21 -26 -3 -21 19 -58 26 -201 36 l-89 7 38
21 c21 12 49 37 61 56 22 32 23 40 17 149 -4 64 -12 132 -19 153 l-12 36 111
10 c61 5 118 10 127 10 15 2 16 -12 13 -125z m-8663 80 c13 -16 12 -17 -3 -4
-10 7 -18 15 -18 17 0 8 8 3 21 -13z m50 -40 c13 -16 12 -17 -3 -4 -17 13 -22
21 -14 21 2 0 10 -8 17 -17z m44 -33 c10 -11 16 -20 13 -20 -3 0 -13 9 -23 20
-10 11 -16 20 -13 20 3 0 13 -9 23 -20z m-75 -12 c-1 -7 -8 -24 -16 -38 -8
-14 -13 -17 -10 -7 3 10 6 27 6 38 0 10 5 19 10 19 6 0 10 -6 10 -12z m131
-34 c23 -25 23 -26 2 -13 -13 7 -25 19 -27 26 -8 19 -2 16 25 -13z m-407 -96
c79 -51 57 -48 -56 7 -97 48 -131 72 -122 87 6 9 74 -27 178 -94z m457 55 c13
-16 12 -17 -3 -4 -10 7 -18 15 -18 17 0 8 8 3 21 -13z m-141 -163 c-10 -36
-19 -50 -30 -50 -4 0 1 18 11 40 23 47 31 52 19 10z m-90 -73 c0 -5 -13 1 -30
13 -16 12 -30 24 -30 26 0 3 14 -3 30 -13 17 -9 30 -21 30 -26z m7058 -114 c6
-65 14 -170 17 -233 3 -63 17 -209 30 -325 25 -216 38 -439 55 -915 6 -151 15
-349 20 -440 6 -91 12 -203 13 -250 l2 -85 -130 -6 c-134 -6 -367 -28 -374
-35 -3 -3 110 -1 251 2 l255 7 6 -33 c4 -18 7 -63 7 -100 l0 -67 -39 -12 c-51
-15 -105 -77 -120 -137 -36 -142 110 -275 245 -224 39 15 25 21 -22 9 -49 -13
-108 0 -149 33 -34 27 -65 92 -65 138 0 77 64 159 127 163 l28 2 20 -123 c16
-101 24 -125 40 -134 11 -6 36 -27 55 -47 19 -20 67 -53 107 -73 62 -33 80
-38 139 -38 69 0 183 23 291 58 32 11 72 22 89 25 l31 6 -7 -42 c-26 -152 -33
-189 -51 -265 -20 -86 -36 -111 -74 -112 -19 -1 -19 -1 -2 -14 44 -33 98 20
121 119 21 89 36 196 36 260 0 28 4 55 8 61 8 12 104 65 109 60 2 -1 -28 -97
-66 -212 -163 -496 -274 -842 -326 -1019 -31 -104 -67 -224 -81 -265 -13 -41
-31 -104 -40 -140 -9 -36 -36 -148 -62 -249 -44 -178 -47 -183 -76 -196 -123
-53 -175 -81 -277 -151 -64 -43 -134 -93 -155 -110 -86 -69 -160 -129 -169
-136 -5 -4 -32 -26 -60 -49 -27 -22 -68 -50 -90 -61 -45 -23 -105 -76 -105
-93 0 -6 -22 -33 -49 -59 l-50 -49 -5 34 c-3 19 -7 50 -10 69 -108 837 -149
1104 -276 1800 -130 719 -130 717 -130 945 0 155 3 204 12 199 8 -5 9 -2 3 12
-4 10 -10 188 -12 394 -4 349 -3 393 21 639 38 381 101 734 164 906 14 39 44
138 68 220 41 145 56 188 129 360 26 62 38 81 56 83 17 3 20 0 15 -13 -22 -57
-116 -409 -112 -418 2 -7 5 -5 5 4 1 9 30 107 66 217 l66 202 42 1 c40 2 310
13 388 17 l36 2 11 -117z m8135 -133 c3 -11 1 -23 -4 -26 -5 -3 -9 6 -9 20 0
31 6 34 13 6z m-2143 -75 c7 -9 8 -15 2 -15 -5 0 -12 7 -16 15 -3 8 -4 15 -2
15 2 0 9 -7 16 -15z m-5410 -39 c0 -3 -4 -8 -10 -11 -5 -3 -10 -1 -10 4 0 6 5
11 10 11 6 0 10 -2 10 -4z m-6830 -162 c29 -52 94 -214 88 -219 -2 -2 -55 -28
-118 -60 -63 -31 -137 -73 -163 -92 -52 -37 -57 -37 -60 -5 0 11 -4 19 -7 17
-4 -2 -17 16 -29 40 -12 25 -27 45 -32 45 -5 0 -9 4 -9 9 0 4 -22 42 -50 84
-27 42 -50 78 -50 81 0 4 7 6 15 6 30 0 266 89 340 128 22 12 41 21 42 22 0 0
15 -25 33 -56z m8333 -111 c-25 -49 -62 -117 -83 -153 -20 -36 -58 -109 -85
-162 -38 -76 -52 -95 -62 -86 -7 6 -13 14 -13 19 0 4 -11 20 -25 35 -29 31
-35 19 69 145 38 46 73 83 77 82 5 -2 8 1 7 6 -2 5 22 37 53 72 30 35 66 79
79 97 13 17 25 32 27 32 1 0 -18 -39 -44 -87z m-8734 -133 c105 -155 136 -224
69 -152 -33 34 -165 241 -178 279 -10 27 -9 27 20 -7 17 -19 57 -73 89 -120z
m-304 -68 c-3 -3 -11 0 -18 7 -9 10 -8 11 6 5 10 -3 15 -9 12 -12z m7586 -18
c2 2 18 6 34 10 l30 7 -25 -20 c-22 -17 -27 -18 -52 -5 -15 8 -28 17 -28 20 0
2 8 0 19 -5 10 -6 20 -9 22 -7z m6463 -29 c-4 -8 -8 -15 -10 -15 -2 0 -4 7 -4
15 0 8 4 15 10 15 5 0 7 -7 4 -15z m-5970 -372 c31 -54 69 -116 86 -138 16
-22 41 -57 56 -78 l27 -37 -29 -41 c-55 -77 -74 -109 -65 -109 11 0 30 19 51
50 8 13 26 36 38 51 l24 29 45 -50 c25 -28 72 -71 103 -95 72 -55 73 -35 -27
-282 -3 -7 -9 -10 -14 -7 -5 3 -6 -1 -4 -9 7 -17 -40 -119 -50 -109 -5 4 -5 2
-2 -4 7 -12 -26 -101 -88 -239 -24 -54 -53 -129 -81 -207 -16 -42 -29 -76 -31
-75 -4 5 -26 283 -43 557 -11 188 -25 347 -45 540 -43 406 -43 394 -25 372 10
-11 43 -65 74 -119z m-290 -1 c4 -27 3 -41 -3 -38 -5 4 -17 -4 -26 -16 -15
-21 -16 -21 -12 -3 3 11 11 40 17 64 13 51 15 50 24 -7z m6877 29 c-8 -5 -20
-7 -28 -4 -21 8 -15 13 15 13 20 0 23 -3 13 -9z m69 5 c0 -9 -40 -13 -46 -5
-3 5 6 9 20 9 14 0 26 -2 26 -4z m-110 -54 c0 -10 -7 -12 -24 -8 -14 3 -28 1
-32 -5 -4 -7 -20 -9 -40 -6 -19 3 -36 1 -39 -4 -11 -17 -25 -9 -25 15 0 22 6
25 48 31 26 3 56 10 67 15 21 9 45 -11 45 -38z m-7101 -15 c0 -12 -4 -31 -9
-42 -5 -14 -8 -7 -8 28 0 26 4 45 9 41 5 -3 9 -15 8 -27z m7147 17 c18 -14 18
-14 -6 -3 -31 14 -36 19 -24 19 6 0 19 -7 30 -16z m-8 -41 c-10 -2 -26 -2 -35
0 -10 3 -2 5 17 5 19 0 27 -2 18 -5z m-7064 -74 c10 -17 14 -29 8 -26 -5 4
-20 24 -32 44 -12 20 -16 32 -8 26 7 -6 22 -26 32 -44z m72 -98 c-5 -2 -18 6
-28 19 -28 34 -21 42 10 12 15 -15 23 -29 18 -31z m-196 -188 c-7 -46 -17 -86
-23 -90 -6 -4 -8 2 -4 18 4 13 12 67 19 119 7 52 14 82 16 66 2 -16 -2 -67 -8
-113z m377 -5 c-3 -7 -5 -2 -5 12 0 14 2 19 5 13 2 -7 2 -19 0 -25z m10 -50
c-3 -8 -6 -5 -6 6 -1 11 2 17 5 13 3 -3 4 -12 1 -19z m13 -49 c0 -28 -15 -23
-16 6 -1 14 2 22 7 19 5 -3 9 -14 9 -25z m-180 -362 c11 -15 11 -18 0 -15 -7
2 -16 -8 -20 -22 -6 -20 -9 -22 -14 -9 -6 14 10 78 17 68 2 -2 9 -12 17 -22z
m-6521 -74 c-1 -10 1 -25 4 -33 8 -20 41 -200 72 -395 22 -136 25 -186 23
-335 l-3 -175 83 -167 c46 -92 81 -172 77 -178 -3 -5 -22 -10 -42 -10 l-36 0
7 -117 c4 -65 11 -185 16 -268 15 -244 11 -545 -11 -852 -11 -158 -22 -289
-24 -292 -3 -2 -33 15 -67 37 -35 22 -75 46 -91 53 -31 14 -31 14 -52 152 -8
54 -46 245 -84 425 -38 180 -77 372 -86 427 -22 129 -101 469 -116 498 -7 12
-24 37 -37 55 -28 37 -27 46 13 192 24 86 17 281 -19 515 -3 19 17 44 100 129
50 51 188 215 195 232 7 17 74 124 77 124 2 0 2 -8 1 -17z m6449 -205 c-3 -31
0 -33 32 -39 21 -4 26 -7 13 -8 -13 0 -23 -6 -23 -11 0 -6 -9 -30 -21 -53 -17
-34 -38 -147 -40 -217 0 -9 -9 -17 -20 -17 -11 -1 -17 2 -14 7 3 5 12 51 20
102 25 154 47 268 52 268 2 0 3 -15 1 -32z m172 -38 c0 -6 -23 -9 -52 -8 l-53
1 50 7 c28 4 51 8 53 8 1 1 2 -2 2 -8z m345 -230 c-15 -46 -23 -61 -21 -40 6
44 40 148 43 129 2 -8 -8 -48 -22 -89z m-241 15 c3 -8 1 -15 -4 -15 -6 0 -10
7 -10 15 0 8 2 15 4 15 2 0 6 -7 10 -15z m172 -296 c-50 -207 -71 -308 -81
-389 -4 -30 -11 -71 -15 -90 -17 -66 -59 -365 -75 -535 -24 -246 -21 -235 -54
-235 -28 0 -121 -51 -163 -89 -44 -41 -93 -81 -100 -81 -25 0 465 1523 503
1561 10 10 19 27 19 36 0 9 2 14 5 11 3 -3 -15 -88 -39 -189z m-526 -1639 c0
-5 -2 -10 -4 -10 -3 0 -8 5 -11 10 -3 6 -1 10 4 10 6 0 11 -4 11 -10z m-14
-89 c1 -38 5 -75 10 -82 6 -12 5 -12 -9 0 -20 16 -22 8 -6 -21 8 -14 8 -41 0
-96 -10 -72 -45 -263 -55 -307 -6 -22 -50 -265 -71 -390 -15 -88 -21 -115 -59
-255 -37 -136 -37 -134 32 -103 31 14 59 29 62 34 4 5 21 12 39 15 34 7 35 6
15 -66 -2 -8 -30 -29 -62 -47 -31 -17 -82 -55 -113 -85 -48 -45 -58 -61 -69
-108 -6 -30 -15 -64 -20 -75 -4 -11 -22 -67 -41 -125 -18 -58 -36 -109 -39
-115 -17 -26 -74 -220 -72 -247 0 -10 -8 -24 -20 -32 -11 -8 -17 -19 -14 -24
8 -13 -11 -57 -43 -100 -19 -27 -26 -30 -33 -19 -7 14 2 49 33 122 16 38 14
33 23 80 22 113 80 331 90 337 6 4 11 20 12 35 0 15 4 45 8 66 5 23 4 42 -2
50 -16 18 4 98 28 114 11 8 20 22 20 32 0 10 3 21 7 25 4 3 7 14 8 24 3 41 30
142 38 142 4 0 5 5 2 10 -6 10 21 153 52 275 9 33 15 75 14 93 -1 22 3 31 10
26 7 -4 9 0 5 12 -3 11 -1 37 5 59 6 22 19 80 30 128 10 49 21 92 24 97 5 8
22 79 29 127 7 39 17 63 26 58 4 -3 6 4 3 15 -8 30 7 97 17 80 5 -8 6 3 3 28
-4 29 -2 42 6 42 8 0 10 8 6 21 -5 15 -4 19 4 15 7 -5 11 5 11 27 0 39 28 116
30 82 l1 -20 8 20 c5 11 4 22 0 23 -12 5 -11 49 1 57 6 4 7 12 4 18 -4 7 -3 8
2 4 4 -4 9 -39 10 -76z m-5899 -533 c-2 -13 -4 -5 -4 17 -1 22 1 32 4 23 2
-10 2 -28 0 -40z m-3809 -168 c12 -12 22 -26 22 -32 0 -9 -3 -9 -12 0 -19 19
-30 14 -23 -9 6 -18 4 -20 -17 -14 -17 5 -19 4 -8 -4 11 -7 4 -11 -25 -14
l-40 -4 40 -1 c74 -1 80 -5 20 -13 -105 -15 -120 -17 -135 -22 -8 -2 -33 -7
-55 -11 -22 -4 -47 -10 -55 -12 -10 -3 -16 3 -17 16 -1 16 4 20 30 19 31 -1
31 -1 7 -9 -23 -7 -23 -8 -3 -9 27 -1 53 8 53 20 0 5 -10 9 -22 10 -13 0 -17
3 -10 6 6 2 10 8 7 13 -3 5 20 12 50 15 30 4 55 12 55 17 0 5 4 7 9 4 5 -4 21
-2 35 4 17 6 26 6 26 0 0 -6 -10 -10 -22 -10 -12 0 -19 -3 -15 -6 13 -14 75 7
80 26 3 11 1 20 -4 20 -5 0 -9 -4 -9 -10 0 -5 -5 -10 -10 -10 -7 0 -7 6 0 20
13 25 21 25 48 0z m269 4 c-3 -3 -12 -4 -19 -1 -8 3 -5 6 6 6 11 1 17 -2 13
-5z m-210 -20 c-3 -3 -12 -4 -19 -1 -8 3 -5 6 6 6 11 1 17 -2 13 -5z m870 0
c-3 -3 -12 -4 -19 -1 -8 3 -5 6 6 6 11 1 17 -2 13 -5z m-827 -14 c0 -5 -7 -10
-16 -10 -8 0 -12 5 -9 10 3 6 10 10 16 10 5 0 9 -4 9 -10z m-10 -20 l25 -8
-28 -1 c-16 -1 -26 -5 -22 -11 7 -11 -24 -13 -49 -4 -51 19 18 42 74 24z m128
3 c-10 -2 -26 -2 -35 0 -10 3 -2 5 17 5 19 0 27 -2 18 -5z m-508 -33 c0 -5 -7
-10 -16 -10 -8 0 -12 5 -9 10 3 6 10 10 16 10 5 0 9 -4 9 -10z m597 3 c-9 -2
-15 -8 -12 -13 11 -17 -13 -19 -56 -5 -41 14 -41 14 -9 10 19 -3 42 0 50 5 8
5 22 9 30 9 11 -1 10 -3 -3 -6z m70 1 c-3 -3 -12 -4 -19 -1 -8 3 -5 6 6 6 11
1 17 -2 13 -5z m1007 -10 c27 -4 46 -12 46 -19 0 -14 -14 -18 -120 -35 -41 -6
-91 -16 -110 -21 -50 -15 -111 -8 -124 14 -9 15 -6 23 17 43 26 22 36 24 136
24 60 0 129 -3 155 -6z m-1176 -20 c5 3 7 -8 4 -23 -3 -22 -8 -28 -23 -24 -10
3 -19 0 -19 -6 0 -6 10 -11 21 -11 19 0 21 -4 16 -32 l-5 -33 44 4 c39 3 44 1
44 -18 0 -24 5 -24 99 -15 41 5 61 11 61 20 0 8 11 14 25 14 15 0 40 8 58 17
18 9 40 17 50 18 10 0 21 5 25 10 11 16 72 45 95 45 12 1 33 7 47 15 38 22
288 21 297 -1 8 -23 -9 -35 -58 -41 -24 -3 -48 -9 -54 -13 -5 -5 -41 -11 -79
-15 -39 -3 -75 -10 -80 -14 -6 -5 -45 -12 -86 -16 -41 -4 -86 -13 -100 -20
-14 -7 -40 -10 -57 -8 -21 3 -33 1 -33 -6 0 -7 -24 -11 -65 -11 -37 0 -65 -4
-65 -10 0 -5 -18 -10 -39 -10 -30 0 -46 -7 -69 -30 -17 -16 -35 -30 -41 -30
-8 0 -11 -64 -11 -200 0 -127 -4 -200 -10 -200 -5 0 -10 18 -10 40 0 33 -3 40
-20 40 -17 0 -20 -7 -20 -40 0 -22 -4 -40 -10 -40 -6 0 -10 -33 -10 -80 l0
-80 -40 0 -40 0 0 -40 c0 -33 3 -40 20 -40 17 0 20 -7 20 -40 0 -33 -3 -40
-20 -40 -18 0 -20 -7 -20 -80 0 -73 -2 -80 -20 -80 -17 0 -20 7 -20 40 0 33
-3 40 -19 40 -11 0 -22 8 -24 18 -4 16 -5 16 -6 -1 0 -10 6 -20 14 -23 17 -7
21 -74 5 -74 -5 0 -10 -18 -10 -40 0 -33 -3 -40 -20 -40 -17 0 -20 7 -20 40 0
34 -3 40 -21 40 -20 0 -21 4 -17 58 3 31 3 49 1 40 -4 -15 -16 -18 -64 -18
l-60 0 2 92 c2 84 0 93 -20 106 -17 12 -21 24 -21 68 0 47 -2 54 -20 54 -18 0
-20 7 -20 80 0 47 -4 80 -10 80 -5 0 -10 18 -10 40 0 22 -4 40 -10 40 -5 0
-10 15 -10 33 l-1 32 -19 -25 c-11 -14 -24 -30 -30 -37 -5 -7 -15 -34 -21 -60
-6 -26 -15 -55 -19 -63 -3 -8 -15 -45 -25 -82 -12 -47 -23 -68 -36 -71 -39
-10 -41 42 -8 174 17 68 20 100 15 166 -6 75 -5 84 15 107 13 14 30 26 39 26
32 0 70 46 70 85 0 19 -4 35 -9 35 -5 0 -11 20 -13 45 l-3 45 45 5 c25 3 68
10 95 15 162 31 202 36 215 31 9 -3 2 -8 -20 -12 -35 -6 -35 -6 -4 -8 18 0 39
7 53 20 18 17 32 20 81 17 32 -1 56 0 54 4 -7 10 39 15 59 6 9 -5 21 -7 25 -4z
m129 0 c-3 -3 -12 -4 -19 -1 -8 3 -5 6 6 6 11 1 17 -2 13 -5z m-670 -20 c-3
-3 -12 -4 -19 -1 -8 3 -5 6 6 6 11 1 17 -2 13 -5z m793 -425 c19 -12 37 -25
40 -29 4 -6 158 -103 279 -175 57 -34 97 -60 101 -65 3 -3 41 -30 85 -59 81
-55 149 -105 174 -129 7 -7 72 -59 143 -115 238 -187 263 -208 358 -297 41
-38 49 -50 32 -47 -12 3 -20 2 -17 -3 4 -7 -58 -37 -95 -45 -8 -2 -44 -15 -79
-29 -36 -14 -67 -26 -71 -26 -3 0 -32 20 -65 45 -33 25 -127 97 -210 160 -170
128 -349 265 -490 374 -55 42 -99 70 -104 65 -4 -5 -22 -79 -39 -164 -26 -132
-63 -302 -127 -585 -7 -33 -29 -134 -49 -225 -20 -91 -45 -197 -56 -237 -24
-87 -25 -81 3 -86 16 -3 10 -6 -20 -12 -24 -4 -43 -13 -43 -20 0 -6 -12 -18
-27 -26 -16 -8 -32 -20 -36 -26 -4 -7 -15 -13 -22 -13 -8 0 -15 -4 -15 -9 0
-10 -80 -64 -86 -58 -3 2 9 80 26 173 18 93 38 219 46 279 7 61 16 126 18 145
3 19 8 60 12 90 3 30 12 84 19 120 7 36 19 94 25 130 7 36 18 90 26 120 37
149 77 317 78 330 1 9 5 20 8 25 3 6 11 37 18 70 6 33 19 80 27 105 23 68 40
139 48 195 12 80 27 89 85 54z m8561 -376 c-5 -20 -23 -36 -62 -56 -106 -57
-167 -87 -173 -87 -3 0 -31 -16 -62 -36 -30 -20 -58 -34 -60 -31 -10 10 10 34
53 62 68 45 88 58 114 77 44 31 184 106 191 102 3 -2 3 -16 -1 -31z m109 -621
c0 -19 -38 -51 -66 -56 -23 -5 -25 -4 -9 3 20 10 8 15 -25 12 -13 -2 -13 -1 0
8 8 6 22 8 31 6 9 -3 27 3 40 14 28 23 29 24 29 13z m-7515 -322 c3 -5 1 -10
-4 -10 -6 0 -11 5 -11 10 0 6 2 10 4 10 3 0 8 -4 11 -10z m-85 -30 c0 -5 -7
-10 -16 -10 -8 0 -12 5 -9 10 3 6 10 10 16 10 5 0 9 -4 9 -10z m-70 -48 c-8
-2 -34 -14 -57 -25 -45 -21 -72 -15 -38 8 11 8 24 18 29 22 5 5 26 7 45 4 20
-2 29 -6 21 -9z m-130 -48 c0 -8 -5 -12 -10 -9 -6 4 -8 11 -5 16 9 14 15 11
15 -7z m-40 -20 c0 -12 -30 -34 -47 -34 -15 0 -16 2 -3 10 13 8 12 10 -5 11
-14 1 -10 4 10 9 41 10 45 11 45 4z m-54 -52 c-3 -2 -16 -6 -28 -8 -13 -3 -38
-7 -57 -10 -24 -5 -32 -3 -27 5 4 6 19 11 34 11 15 0 33 4 41 9 14 9 46 3 37
-7z m-151 -62 c-3 -5 -14 -10 -23 -10 -15 0 -15 2 -2 10 20 13 33 13 25 0z
m-711 -24 c-5 -12 -45 -36 -61 -36 -5 0 55 45 64 49 1 1 0 -5 -3 -13z m663 8
c-3 -3 -12 -4 -19 -1 -8 3 -5 6 6 6 11 1 17 -2 13 -5z m-103 -76 c-3 -4 -12
-8 -20 -8 -8 0 -13 4 -10 8 3 5 12 9 20 9 8 0 13 -4 10 -9z m209 6 c4 -4 -1
-19 -10 -35 -17 -29 -65 -49 -71 -30 -2 6 -10 11 -18 11 -13 0 -17 8 -12 28 3
17 97 39 111 26z m2127 -102 c0 -95 -22 -369 -40 -497 -18 -131 -66 -299 -116
-403 -106 -222 -130 -270 -163 -327 -47 -79 -66 -118 -91 -186 -19 -51 -63
-109 -75 -97 -3 2 2 29 11 59 9 29 18 65 21 79 2 13 7 27 11 30 4 3 8 25 10
50 2 25 7 61 13 81 12 48 1 100 -23 106 -10 3 -18 9 -18 14 0 5 20 49 43 97
24 48 52 112 62 142 10 30 35 105 56 165 40 117 97 367 109 476 6 57 15 77 63
150 30 46 67 98 81 114 14 17 26 34 26 38 0 5 5 5 10 2 6 -3 10 -45 10 -93z
m-2385 59 c3 -5 -4 -12 -15 -16 -11 -3 -20 -13 -20 -22 0 -12 8 -13 40 -8 44
7 53 -4 18 -20 -13 -6 -22 -17 -20 -24 1 -7 -7 -15 -18 -18 -11 -3 -20 -11
-20 -17 0 -6 -17 -20 -37 -31 -21 -11 -40 -23 -43 -26 -14 -17 -69 -37 -88
-32 -24 6 -30 37 -9 50 16 10 37 49 37 68 0 9 9 15 21 15 12 0 23 8 26 20 4
14 14 20 34 20 19 0 29 5 29 15 0 8 7 15 15 15 8 0 15 5 15 10 0 13 27 13 35
1z m-261 -160 c3 -5 -1 -12 -10 -15 -27 -11 -37 -7 -24 9 14 17 26 19 34 6z
m2306 -64 c0 -2 -10 -12 -22 -23 l-23 -19 19 23 c18 21 26 27 26 19z m-2440
-26 c0 -5 -12 -6 -27 -3 -24 5 -25 6 -8 12 21 8 35 4 35 -9z m-40 -26 c0 -8
-58 -35 -75 -35 -8 0 -15 5 -15 12 0 6 3 8 6 5 4 -3 16 0 28 8 19 14 56 21 56
10z m2470 -40 c10 -14 6 -13 -14 5 -21 18 -28 20 -23 8 4 -12 2 -15 -9 -11
-17 6 -18 15 -3 30 12 12 19 8 49 -32z m-43 -25 c16 -32 9 -36 -21 -16 -16 10
-23 22 -19 31 7 21 25 14 40 -15z m-33 -26 c3 -8 2 -12 -4 -9 -14 9 -12 -8 3
-25 10 -12 9 -12 -4 -2 -14 10 -22 7 -48 -24 -18 -20 -30 -42 -27 -50 3 -7 1
-16 -5 -20 -11 -7 -33 -55 -31 -66 1 -5 -8 -8 -19 -8 -16 0 -19 3 -11 13 8 10
5 16 -11 27 -19 11 -20 11 -11 -1 17 -23 17 -79 -1 -85 -8 -4 -15 -12 -15 -20
0 -8 -6 -14 -14 -14 -8 0 -21 -8 -28 -18 -7 -10 -21 -21 -30 -25 -9 -3 -18
-16 -20 -29 -2 -19 -9 -23 -33 -21 -17 0 -24 -1 -17 -4 15 -6 16 -33 1 -33 -5
0 -7 -4 -4 -10 4 -6 -7 -8 -27 -5 -29 5 -30 4 -10 -5 22 -9 22 -11 6 -35 -10
-16 -23 -24 -32 -20 -9 3 -12 0 -9 -8 6 -15 -59 -89 -86 -100 -10 -4 -17 -12
-17 -20 0 -20 -52 -65 -57 -49 -3 6 -10 12 -16 12 -8 0 -8 -3 1 -12 16 -16 -3
-49 -25 -41 -11 5 -14 3 -8 -6 5 -8 -5 -24 -26 -43 -19 -17 -52 -47 -74 -67
-22 -20 -43 -35 -47 -34 -5 2 -8 -1 -8 -6 0 -15 -50 -62 -60 -56 -5 3 -7 0 -4
-9 3 -9 -2 -17 -15 -21 -12 -3 -21 -11 -21 -16 0 -6 -4 -8 -9 -5 -5 3 -14 -1
-21 -9 -7 -8 -19 -15 -26 -15 -8 0 -14 -4 -14 -9 0 -5 -7 -11 -15 -15 -25 -9
-17 13 14 42 16 15 31 36 33 46 1 11 9 21 17 24 8 3 11 0 7 -7 -5 -7 -1 -8 10
-4 11 4 13 8 6 11 -7 2 -12 8 -12 13 0 6 4 8 10 4 5 -3 18 3 30 15 15 15 17
20 5 20 -8 0 -15 -4 -15 -10 0 -5 -5 -10 -11 -10 -8 0 -8 5 1 15 7 8 19 15 27
15 8 0 11 4 8 10 -4 6 1 7 11 3 13 -5 16 -3 11 10 -5 13 -1 17 16 18 12 0 16
3 9 6 -15 6 -6 23 13 23 8 0 26 12 41 26 14 15 19 24 10 21 -9 -4 -16 -2 -16
3 0 6 4 10 9 10 5 0 16 6 23 13 8 6 23 17 33 23 11 6 20 17 20 25 0 7 9 18 20
24 12 5 32 20 45 33 13 12 27 22 32 22 4 0 8 7 8 16 0 10 6 14 14 11 8 -3 16
2 19 15 4 13 10 17 19 12 10 -6 9 -3 -1 10 -8 9 -10 16 -5 15 23 -4 36 2 31
16 -4 8 -2 17 3 20 6 4 10 1 10 -4 0 -6 5 -11 10 -11 6 0 10 9 10 20 0 10 10
24 21 31 14 7 18 14 11 18 -7 4 -4 11 8 19 17 10 18 9 14 -6 -4 -11 1 -8 14 8
11 13 18 29 15 34 -3 5 -1 6 6 2 6 -4 14 0 17 8 3 9 11 13 18 9 6 -4 6 0 -2 9
-11 14 -9 19 10 32 12 9 29 16 38 16 9 0 16 9 17 20 2 18 0 19 -13 5 -23 -22
-30 -18 -9 5 10 11 24 20 30 20 7 0 16 11 19 25 4 15 11 23 17 19 8 -4 7 -10
-2 -16 -11 -8 -11 -9 1 -5 8 2 15 13 15 24 0 10 7 26 16 35 8 9 27 30 42 48
15 17 32 28 38 25 6 -4 9 -1 7 6 -3 17 42 79 58 79 6 0 15 -7 18 -16z m-2561
-41 c-7 -2 -19 -2 -25 0 -7 3 -2 5 12 5 14 0 19 -2 13 -5z m2547 -28 c0 -25
-14 -34 -24 -16 -8 12 3 41 15 41 5 0 9 -11 9 -25z m-220 -274 c0 -5 -7 -11
-15 -15 -15 -5 -20 5 -8 17 9 10 23 9 23 -2z m13110 -156 c9 -11 23 -14 44 -9
42 7 111 -21 136 -56 11 -15 22 -45 25 -66 12 -78 -56 -136 -176 -150 -56 -6
-115 8 -104 26 3 5 -3 10 -13 10 -11 0 -25 7 -32 14 -9 12 -3 33 29 105 23 50
41 99 41 109 0 34 28 43 50 17z m414 -71 c26 -10 38 -41 26 -64 -6 -11 -15
-20 -19 -20 -5 0 -11 9 -14 20 -16 63 -126 -47 -127 -127 0 -13 10 -29 25 -39
23 -15 27 -15 70 6 61 29 148 33 153 7 2 -10 -4 -27 -14 -38 -19 -21 -102 -49
-146 -49 -26 0 -28 -3 -29 -40 -1 -22 -2 -45 -3 -52 -1 -6 15 -17 34 -24 l35
-12 55 59 c39 43 71 66 110 82 46 19 54 26 52 44 -2 13 5 35 16 50 27 39 72
130 72 146 0 7 6 22 14 33 14 18 16 18 32 2 17 -17 14 -35 -22 -122 -6 -16 -4
-18 12 -12 43 17 108 23 140 14 65 -18 63 -69 -6 -114 -22 -15 -40 -28 -40
-29 0 -2 42 -28 93 -58 105 -62 172 -93 222 -103 20 -3 32 -11 29 -16 -9 -15
-89 -2 -154 24 -56 22 -65 27 -182 92 -38 21 -73 36 -78 34 -6 -2 54 -38 134
-81 159 -87 202 -122 193 -159 -16 -60 -122 -72 -307 -34 -69 14 -174 41 -235
60 l-109 35 -56 -59 c-44 -47 -59 -58 -77 -54 -29 8 -47 63 -39 120 3 24 4 44
2 44 -2 0 -18 -42 -36 -92 -32 -94 -67 -142 -94 -132 -21 8 -24 23 -32 124 -4
49 -10 90 -14 90 -7 0 -46 -76 -76 -147 -11 -29 -23 -43 -36 -43 -30 0 -32 24
-8 120 12 50 20 102 17 115 -3 18 2 30 16 40 24 17 35 11 -139 70 -127 43
-158 59 -99 50 22 -3 51 -10 65 -14 14 -5 43 -14 65 -19 47 -13 298 -90 319
-98 11 -4 17 3 22 23 4 15 13 36 19 46 11 15 9 22 -11 44 -80 86 53 298 160
257z m-15934 -263 c226 -24 562 -74 650 -96 36 -9 112 -26 170 -36 58 -11 114
-23 125 -28 11 -5 84 -30 163 -56 78 -26 142 -51 142 -57 0 -6 -28 -40 -62
-77 -59 -63 -64 -66 -103 -63 -60 5 -491 68 -730 107 -115 18 -273 43 -350 55
-213 33 -198 24 -317 185 -28 39 -56 72 -61 74 -5 2 -3 8 4 13 17 11 122 5
369 -21z m1730 -109 c0 -13 -12 -22 -22 -16 -10 6 -1 24 13 24 5 0 9 -4 9 -8z
m-60 -96 c0 -3 -4 -8 -10 -11 -5 -3 -10 -1 -10 4 0 6 5 11 10 11 6 0 10 -2 10
-4z m-5 -61 c50 -14 135 -36 190 -50 136 -33 285 -85 285 -100 0 -7 -148 -105
-157 -105 -5 0 -70 20 -145 45 -153 50 -224 63 -381 67 l-108 2 58 51 c32 27
74 65 93 82 19 18 44 33 55 33 11 0 61 -11 110 -25z"/>
<path d="M9846 17757 c3 -10 9 -15 12 -12 3 3 0 11 -7 18 -10 9 -11 8 -5 -6z"/>
<path d="M10097 17743 c-12 -20 -17 -104 -8 -120 6 -10 22 -45 36 -77 l26 -59
32 34 c27 29 29 35 14 37 -9 2 -21 11 -27 21 -8 16 -6 17 17 13 l25 -5 -23 27
c-19 22 -25 24 -27 12 -2 -9 -8 -16 -13 -16 -12 0 -11 14 3 28 8 8 8 15 -2 27
-15 18 -37 20 -43 3 -2 -7 -2 8 1 35 4 43 0 59 -11 40z"/>
<path d="M10321 17734 c0 -11 3 -14 6 -6 3 7 2 16 -1 19 -3 4 -6 -2 -5 -13z"/>
<path d="M10142 17710 c0 -14 2 -19 5 -12 2 6 2 18 0 25 -3 6 -5 1 -5 -13z"/>
<path d="M9681 17614 c0 -11 3 -14 6 -6 3 7 2 16 -1 19 -3 4 -6 -2 -5 -13z"/>
<path d="M8548 16223 c7 -3 16 -2 19 1 4 3 -2 6 -13 5 -11 0 -14 -3 -6 -6z"/>
<path d="M8316 15796 c3 -9 11 -16 16 -16 13 0 5 23 -10 28 -7 2 -10 -2 -6
-12z"/>
<path d="M4218 15653 c7 -3 16 -2 19 1 4 3 -2 6 -13 5 -11 0 -14 -3 -6 -6z"/>
<path d="M4865 15650 c-3 -5 -1 -10 4 -10 6 0 11 5 11 10 0 6 -2 10 -4 10 -3
0 -8 -4 -11 -10z"/>
<path d="M4056 15630 c7 -7 19 -7 35 -1 23 9 22 10 -10 10 -24 1 -32 -2 -25
-9z"/>
<path d="M4750 15630 l-55 -7 68 -1 c39 -1 67 2 67 8 0 6 -6 9 -12 8 -7 -1
-38 -4 -68 -8z"/>
<path d="M3893 15603 c9 -2 23 -2 30 0 6 3 -1 5 -18 5 -16 0 -22 -2 -12 -5z"/>
<path d="M3739 15586 c-2 -3 -35 -7 -74 -10 -94 -7 -156 -16 -180 -26 -20 -8
-102 -21 -138 -21 -26 0 -67 -17 -67 -27 0 -9 32 -5 158 21 40 8 82 12 94 9
14 -3 19 -1 14 6 -4 7 -1 12 8 12 8 0 22 3 32 7 13 5 15 3 9 -8 -6 -11 -5 -12
6 -1 7 6 33 13 59 13 60 2 108 13 94 21 -6 4 -13 6 -15 4z"/>
<path d="M3190 15490 c-12 -8 -9 -10 12 -10 15 0 30 5 33 10 8 13 -25 13 -45
0z"/>
<path d="M3065 15460 c3 -5 10 -10 16 -10 5 0 9 5 9 10 0 6 -7 10 -16 10 -8 0
-12 -4 -9 -10z"/>
<path d="M2673 15345 c-3 -9 -3 -18 -1 -21 3 -3 8 4 11 16 6 23 -1 27 -10 5z"/>
<path d="M2596 15333 c-6 -14 -5 -15 5 -6 7 7 10 15 7 18 -3 3 -9 -2 -12 -12z"/>
<path d="M4610 15336 c0 -2 8 -10 18 -17 15 -13 16 -12 3 4 -13 16 -21 21 -21
13z"/>
<path d="M4438 15313 c7 -3 16 -2 19 1 4 3 -2 6 -13 5 -11 0 -14 -3 -6 -6z"/>
<path d="M4353 15303 c9 -2 25 -2 35 0 9 3 1 5 -18 5 -19 0 -27 -2 -17 -5z"/>
<path d="M4655 15300 c3 -5 11 -10 16 -10 6 0 7 5 4 10 -3 6 -11 10 -16 10 -6
0 -7 -4 -4 -10z"/>
<path d="M4649 15157 c6 -8 7 -18 3 -22 -4 -5 -1 -5 6 -1 10 6 10 11 1 22 -6
8 -14 14 -16 14 -3 0 0 -6 6 -13z"/>
<path d="M4518 15153 c7 -3 16 -2 19 1 4 3 -2 6 -13 5 -11 0 -14 -3 -6 -6z"/>
<path d="M4370 15140 c-41 -4 -100 -10 -130 -13 -135 -14 -227 -22 -245 -19
-17 2 -18 0 -5 -9 11 -8 7 -9 -19 -5 -19 3 -129 -3 -245 -15 -116 -11 -257
-21 -313 -22 l-102 -2 36 -65 c141 -251 150 -265 174 -263 13 1 67 8 119 17
95 15 232 32 515 62 83 8 166 18 185 20 19 3 58 5 85 5 43 0 133 26 97 28 -7
1 -23 -4 -34 -10 -13 -7 -18 -7 -14 -1 3 6 -2 13 -11 16 -15 4 -15 5 2 4 45
-1 60 2 48 10 -10 6 -8 17 8 46 l21 39 -34 -7 c-21 -4 -28 -3 -19 3 11 7 7 13
-15 27 -38 24 -44 33 -44 67 0 15 -7 30 -15 33 -8 4 -15 13 -15 21 0 12 3 13
15 3 11 -9 18 -8 35 8 12 11 31 18 43 16 21 -4 21 -4 2 5 -23 11 -23 11 -125
1z m-17 -17 c-7 -2 -19 -2 -25 0 -7 3 -2 5 12 5 14 0 19 -2 13 -5z m-6 -279
c-3 -3 -12 -4 -19 -1 -8 3 -5 6 6 6 11 1 17 -2 13 -5z"/>
<path d="M4595 15140 c3 -5 8 -10 11 -10 2 0 4 5 4 10 0 6 -5 10 -11 10 -5 0
-7 -4 -4 -10z"/>
<path d="M4731 15080 c-8 -5 -10 -13 -5 -21 6 -11 5 -12 -7 -2 -17 13 -51 11
-56 -4 -2 -5 8 -15 22 -21 21 -10 29 -9 41 3 9 8 20 15 26 15 6 0 5 7 -3 17
-11 13 -8 13 16 -3 16 -10 26 -13 22 -7 -13 20 -42 32 -56 23z"/>
<path d="M4744 15033 c-18 -18 -18 -28 2 -58 13 -20 14 -28 4 -40 -16 -19 -4
-35 26 -35 14 0 24 -6 24 -14 0 -17 40 -29 41 -13 1 7 5 -5 10 -26 10 -44 1
-67 -42 -110 -34 -32 -35 -38 -9 -62 11 -10 17 -22 14 -26 -3 -5 4 -9 15 -9
11 0 22 -9 26 -21 10 -29 39 -56 56 -51 11 4 11 2 2 -8 -9 -10 -7 -20 10 -44
12 -17 25 -33 29 -36 13 -10 28 -62 22 -72 -4 -6 -2 -8 3 -5 13 8 35 -44 39
-91 3 -29 1 -33 -14 -26 -9 4 -25 7 -35 8 -11 0 -20 12 -25 31 -5 16 -15 30
-22 30 -8 0 -16 9 -18 19 -2 11 -9 25 -16 32 -6 6 -22 26 -36 43 -27 34 -64
43 -53 14 3 -10 3 -15 -1 -12 -4 4 -9 24 -12 44 -2 21 -9 45 -15 54 -8 12 -9
9 -4 -14 5 -28 4 -29 -10 -11 -8 11 -15 24 -15 30 0 5 -3 7 -6 4 -3 -3 3 -23
12 -44 9 -22 16 -42 16 -46 -1 -5 2 -8 7 -8 5 0 12 -19 16 -41 5 -30 10 -38
17 -28 7 11 8 9 7 -6 -3 -31 12 -76 23 -69 6 4 8 -1 4 -14 -4 -12 -1 -26 9
-36 9 -9 13 -20 10 -26 -3 -5 -1 -10 5 -10 7 0 10 -6 7 -14 -3 -7 -2 -17 3
-22 8 -9 42 -108 46 -134 2 -18 27 -83 34 -90 3 -3 5 -10 5 -16 0 -11 49 -166
66 -209 15 -39 51 -177 46 -181 -2 -3 -80 -18 -173 -34 -219 -38 -377 -68
-651 -125 -121 -25 -231 -45 -242 -45 -12 0 -21 -3 -21 -6 0 -3 28 -53 61
-111 45 -77 66 -103 78 -100 151 44 392 101 596 141 288 58 336 67 480 91 248
41 564 85 662 92 50 3 97 9 103 13 9 5 0 35 -30 105 -41 92 -44 96 -69 91 -91
-19 -554 -77 -560 -70 -4 5 -45 124 -91 264 -45 140 -91 274 -101 297 -11 23
-20 50 -22 60 -3 24 -48 135 -59 147 -4 6 -8 19 -8 30 0 23 -37 126 -50 140
-5 5 -6 15 -3 22 3 8 0 14 -7 14 -6 0 -9 3 -6 8 2 4 -2 18 -10 32 l-13 25 -1
-30 c-1 -25 -3 -27 -9 -10 -5 11 -4 30 2 43 7 16 7 30 -3 50 -7 15 -13 30 -12
35 1 4 -2 7 -6 7 -4 0 -13 21 -21 48 -7 26 -23 83 -36 127 -12 44 -25 92 -29
106 -4 20 -12 27 -31 27 -15 0 -33 -7 -41 -15z m76 -63 c0 -5 -5 -10 -11 -10
-5 0 -7 5 -4 10 3 6 8 10 11 10 2 0 4 -4 4 -10z m85 -269 c3 -5 1 -12 -5 -16
-5 -3 -10 1 -10 9 0 18 6 21 15 7z m5 -55 c0 -2 -7 -7 -16 -10 -8 -3 -12 -2
-9 4 6 10 25 14 25 6z m-50 -252 c0 -14 -3 -14 -15 -4 -8 7 -15 14 -15 16 0 2
7 4 15 4 8 0 15 -7 15 -16z m-20 -42 c0 -7 -4 -10 -10 -7 -5 3 -10 16 -10 28
0 18 2 19 10 7 5 -8 10 -21 10 -28z m27 -74 c-3 -7 -5 -2 -5 12 0 14 2 19 5
13 2 -7 2 -19 0 -25z m22 -37 c-15 -5 -22 6 -14 19 6 9 10 9 16 -1 5 -8 4 -15
-2 -18z m31 -90 c0 -6 -4 -13 -10 -16 -5 -3 -10 1 -10 9 0 9 5 16 10 16 6 0
10 -4 10 -9z m12 -33 c-8 -8 -9 -4 -5 13 4 13 8 18 11 10 2 -7 -1 -18 -6 -23z
m18 -38 c0 -5 -5 -10 -11 -10 -5 0 -7 5 -4 10 3 6 8 10 11 10 2 0 4 -4 4 -10z"/>
<path d="M4635 14790 c3 -5 8 -10 11 -10 2 0 4 5 4 10 0 6 -5 10 -11 10 -5 0
-7 -4 -4 -10z"/>
<path d="M4651 14755 c1 -19 18 -51 18 -35 0 8 -4 22 -9 30 -5 8 -9 11 -9 5z"/>
<path d="M4696 14637 c3 -10 9 -15 12 -12 3 3 0 11 -7 18 -10 9 -11 8 -5 -6z"/>
<path d="M1160 14737 c0 -19 54 -100 58 -87 4 10 -45 100 -53 100 -3 0 -5 -6
-5 -13z"/>
<path d="M5432 9478 c5 -29 32 -111 60 -183 27 -71 59 -157 70 -190 30 -89 67
-167 77 -161 5 4 1 23 -9 44 -10 20 -36 89 -59 152 -72 203 -138 380 -143 385
-3 3 -1 -18 4 -47z"/>
<path d="M5390 8910 c0 -11 18 -61 39 -112 85 -201 340 -835 479 -1193 28 -71
51 -125 52 -118 0 14 -93 279 -150 428 -79 202 -369 924 -391 970 -23 50 -29
55 -29 25z"/>
<path d="M5660 8835 c0 -5 5 -17 10 -25 5 -8 10 -10 10 -5 0 6 -5 17 -10 25
-5 8 -10 11 -10 5z"/>
<path d="M5680 8780 c0 -3 9 -28 19 -55 83 -219 110 -294 184 -522 139 -422
184 -634 227 -1073 17 -169 41 -363 50 -395 l8 -30 1 30 c0 17 -4 68 -9 115
-5 47 -19 178 -30 292 -27 277 -63 501 -115 708 -56 220 -330 984 -335 930z"/>
<path d="M6071 7715 c0 -11 4 -27 9 -35 9 -13 10 -13 9 0 0 8 -4 24 -9 35 l-9
20 0 -20z"/>
<path d="M12673 14105 c0 -8 4 -12 9 -9 5 3 6 10 3 15 -9 13 -12 11 -12 -6z"/>
<path d="M15387 13374 c-4 -4 -7 -26 -7 -50 0 -118 -167 -477 -385 -829 -52
-84 -358 -584 -372 -607 -2 -5 -2 -8 1 -8 16 0 409 626 536 854 89 160 188
364 213 436 27 82 41 167 31 190 -5 12 -13 18 -17 14z"/>
<path d="M15404 12849 c-12 -25 -125 -288 -162 -379 -5 -13 -3 -13 10 -2 27
21 191 399 177 407 -4 3 -16 -9 -25 -26z"/>
<path d="M14189 10393 c-23 -27 -49 -59 -58 -73 -27 -43 -104 -141 -107 -137
-2 1 6 45 16 97 11 52 20 102 20 110 -1 31 -20 -18 -41 -102 -11 -46 -24 -87
-29 -93 -4 -5 -14 -28 -21 -50 -13 -38 -15 -46 -18 -70 0 -6 -11 -22 -23 -35
-13 -14 -39 -48 -58 -75 -50 -72 -62 -85 -74 -78 -6 3 -8 3 -4 -2 10 -11 -14
-53 -59 -101 -21 -23 -40 -45 -41 -50 -4 -9 -52 -67 -101 -122 -14 -15 -28
-27 -32 -27 -4 0 -11 -4 -16 -9 -5 -5 -3 -6 5 -2 25 15 11 -9 -30 -49 -24 -23
-50 -50 -58 -61 -39 -49 -130 -174 -130 -180 0 -3 -9 -19 -21 -35 -15 -22 -17
-27 -5 -23 9 3 62 63 118 133 56 69 134 164 173 211 40 47 120 146 178 220 59
74 121 152 137 172 17 20 30 41 30 47 0 6 14 20 30 33 17 12 26 24 20 28 -5 3
6 22 25 43 19 20 32 37 30 37 -3 0 16 28 41 63 26 34 51 61 56 59 5 -1 7 2 3
8 -3 5 7 27 23 47 34 44 76 113 69 113 -3 0 -24 -21 -48 -47z"/>
<path d="M15635 10366 c-44 -18 -169 -79 -277 -135 -109 -56 -198 -98 -198
-94 0 5 -5 0 -11 -10 -6 -9 -14 -15 -20 -12 -14 9 -11 -2 7 -19 14 -15 17 -15
31 0 9 8 22 13 30 10 8 -3 12 -2 9 3 -3 5 20 22 52 38 31 17 133 70 227 118
93 49 194 99 225 112 39 16 48 23 30 23 -14 0 -61 -15 -105 -34z"/>
<path d="M14098 10050 c29 -4 65 -13 81 -20 57 -23 97 -154 103 -337 3 -62 9
-108 16 -115 14 -14 14 -14 12 72 -3 175 -36 313 -90 373 -26 29 -33 31 -101
33 -72 3 -72 3 -21 -6z"/>
<path d="M13386 8615 c-11 -8 -15 -15 -9 -15 6 0 16 7 23 15 16 19 11 19 -14
0z"/>
<path d="M17108 13218 c-16 -31 -17 -55 -2 -55 9 0 10 5 5 16 -6 9 -3 23 6 38
8 13 13 23 10 23 -4 0 -12 -10 -19 -22z"/>
<path d="M16849 12913 c-13 -16 -12 -17 4 -4 9 7 17 15 17 17 0 8 -8 3 -21
-13z"/>
<path d="M16625 12800 c-4 -6 1 -7 11 -3 13 5 15 3 9 -7 -5 -9 -4 -11 4 -6 6
4 9 12 6 17 -8 12 -22 12 -30 -1z"/>
<path d="M16609 12763 c-13 -16 -12 -17 4 -4 9 7 17 15 17 17 0 8 -8 3 -21
-13z"/>
<path d="M16449 12673 c-13 -16 -12 -17 4 -4 9 7 17 15 17 17 0 8 -8 3 -21
-13z"/>
<path d="M16309 12593 c-13 -17 -13 -17 6 -3 11 8 22 16 24 17 2 2 0 3 -6 3
-6 0 -17 -8 -24 -17z"/>
<path d="M15983 12385 c0 -8 4 -12 9 -9 5 3 6 10 3 15 -9 13 -12 11 -12 -6z"/>
<path d="M15390 12421 c0 -7 -5 -9 -12 -5 -7 5 -8 3 -3 -5 5 -9 10 -10 18 -2
6 6 8 14 4 18 -4 3 -7 1 -7 -6z"/>
<path d="M15246 12193 c6 -4 14 -15 17 -23 5 -11 6 -9 4 4 -1 11 -9 21 -17 23
-10 3 -11 2 -4 -4z"/>
<path d="M15233 12165 c0 -8 4 -15 9 -15 4 0 8 4 8 9 0 6 -4 12 -8 15 -5 3 -9
-1 -9 -9z"/>
<path d="M15225 11960 c21 -24 26 -25 19 -6 -3 8 -13 17 -22 21 -13 5 -13 2 3
-15z"/>
<path d="M15290 11881 c0 -5 5 -13 10 -16 6 -3 10 -2 10 4 0 5 -4 13 -10 16
-5 3 -10 2 -10 -4z"/>
<path d="M8560 11590 c-9 -6 -10 -10 -3 -10 6 0 15 5 18 10 8 12 4 12 -15 0z"/>
<path d="M17830 8770 c6 -11 15 -20 20 -20 6 0 2 9 -7 20 -10 11 -19 20 -21
20 -1 0 2 -9 8 -20z"/>
<path d="M18060 8681 c0 -5 5 -13 10 -16 6 -3 10 -2 10 4 0 5 -4 13 -10 16 -5
3 -10 2 -10 -4z"/>
<path d="M18035 8600 c3 -5 8 -10 11 -10 2 0 4 5 4 10 0 6 -5 10 -11 10 -5 0
-7 -4 -4 -10z"/>
<path d="M18125 8549 c-4 -6 -5 -11 -4 -12 2 -2 13 -9 24 -17 19 -14 19 -14 2
6 -9 11 -14 24 -10 27 3 4 4 7 0 7 -3 0 -9 -5 -12 -11z"/>
<path d="M2402 10849 c3 -8 32 -36 64 -64 292 -244 381 -319 529 -449 93 -81
190 -167 215 -190 25 -23 122 -111 215 -195 94 -85 243 -229 332 -320 89 -91
163 -161 163 -155 0 10 -132 161 -231 265 -76 79 -565 521 -815 735 -178 153
-451 377 -466 383 -6 2 -8 -3 -6 -10z"/>
<path d="M4687 8194 c-6 -7 10 -45 23 -54 4 -3 37 -49 75 -103 37 -54 69 -96
71 -94 11 11 -24 86 -72 152 -72 101 -83 112 -97 99z"/>
<path d="M4916 7653 c3 -16 12 -50 20 -77 8 -27 14 -71 14 -97 0 -64 10 -111
24 -106 18 6 6 197 -13 197 -4 0 -15 25 -25 55 -18 57 -31 75 -20 28z"/>
<path d="M1825 7210 c-15 -7 -10 -9 25 -10 25 0 63 -8 85 -16 22 -9 60 -19 85
-23 25 -4 56 -13 70 -19 34 -14 162 -43 168 -38 2 3 -16 10 -39 16 -24 6 -73
22 -109 36 -36 13 -73 24 -82 24 -10 0 -40 9 -68 20 -53 21 -101 25 -135 10z"/>
<path d="M1415 7191 c-23 -13 -37 -16 -55 -9 -17 6 -28 4 -39 -7 -14 -14 -14
-16 -1 -14 8 2 25 0 37 -5 16 -5 37 2 75 23 34 20 46 31 33 31 -11 0 -34 -8
-50 -19z"/>
<path d="M1470 7127 c3 -3 62 -13 130 -22 429 -54 921 -145 1390 -255 216 -51
705 -173 820 -205 47 -13 146 -40 220 -60 285 -77 588 -176 824 -270 90 -36
169 -65 175 -65 85 0 -269 135 -734 280 -230 72 -907 252 -1290 343 -427 102
-936 198 -1220 231 -162 19 -322 30 -315 23z"/>
<path d="M2480 7046 c0 -13 75 -38 135 -47 33 -5 92 -15 130 -24 85 -17 204
-19 256 -3 47 14 52 30 7 20 -54 -12 -187 -6 -273 11 -44 9 -114 21 -155 28
-41 6 -81 14 -87 16 -7 3 -13 2 -13 -1z"/>
<path d="M3420 6895 c36 -8 135 -27 221 -44 162 -31 428 -115 632 -198 60 -24
118 -43 130 -41 16 3 8 8 -28 20 -27 9 -84 31 -125 50 -41 19 -156 63 -255 96
-142 49 -221 69 -379 97 -192 34 -336 48 -196 20z"/>
<path d="M4694 6552 c3 -6 19 -13 35 -17 16 -3 51 -20 77 -37 45 -28 51 -29
82 -18 34 12 35 12 101 -53 36 -36 78 -69 93 -72 15 -4 34 -17 42 -30 14 -21
93 -65 117 -65 23 0 4 23 -35 42 -24 12 -50 32 -57 45 -7 13 -25 27 -40 31
-15 4 -58 34 -95 67 -85 76 -87 77 -120 65 -23 -9 -38 -7 -85 15 -66 29 -126
44 -115 27z"/>
<path d="M2145 6319 c-138 -14 -203 -46 -260 -130 -16 -24 -33 -46 -36 -49
-17 -13 -169 -339 -169 -360 0 -22 18 -8 24 18 7 27 64 131 157 288 l48 80
178 16 c174 16 212 13 185 -14 -14 -14 -24 -16 -112 -29 -67 -9 -120 -26 -120
-38 0 -4 5 -12 12 -19 19 -19 -15 -50 -36 -32 -21 16 -20 27 2 33 13 4 14 5 1
6 -8 0 -25 -9 -36 -21 -23 -26 -144 -217 -146 -233 -1 -5 23 -12 53 -15 l54
-5 2 -95 c1 -52 5 -168 9 -257 4 -89 4 -170 0 -180 -4 -10 -9 -108 -11 -218
-2 -110 -9 -236 -14 -280 -6 -44 -10 -83 -10 -87 0 -5 -7 -8 -16 -8 -13 0 -10
-7 12 -26 l28 -27 153 6 c167 7 184 11 268 75 41 31 51 45 59 82 5 25 10 356
10 745 1 640 0 703 -16 726 -27 42 -140 62 -273 48z m-9 -54 c-27 -13 -58 -26
-70 -30 -19 -7 -18 -8 9 -14 25 -6 20 -8 -33 -14 -34 -4 -75 -9 -90 -12 -24
-6 -22 -2 22 39 51 47 60 49 181 53 27 1 26 -1 -19 -22z m59 -176 c4 -5 -1
-19 -10 -30 -17 -17 -19 -18 -30 -2 -9 12 -9 20 -1 29 14 16 33 18 41 3z m-49
-158 c-11 -18 -36 -13 -36 7 0 10 3 22 7 26 10 10 37 -20 29 -33z m-146 4 c0
-15 -6 -25 -14 -25 -21 0 -27 28 -8 39 23 14 22 14 22 -14z m90 -130 c0 -9 -6
-12 -15 -9 -8 4 -15 10 -15 15 0 5 7 9 15 9 8 0 15 -7 15 -15z m-50 -119 c0
-3 -4 -8 -10 -11 -5 -3 -10 -1 -10 4 0 6 5 11 10 11 6 0 10 -2 10 -4z m140 0
c0 -3 -4 -8 -10 -11 -5 -3 -10 -1 -10 4 0 6 5 11 10 11 6 0 10 -2 10 -4z"/>
<path d="M5053 6213 c-22 -8 -14 -23 11 -23 13 0 35 -9 49 -20 14 -11 29 -20
34 -20 4 0 26 -10 49 -22 23 -12 48 -19 58 -15 21 8 12 27 -13 27 -10 0 -26 9
-36 20 -10 11 -26 20 -36 20 -10 0 -33 9 -51 20 -34 20 -43 22 -65 13z"/>
<path d="M1697 5748 c2 -5 40 -8 85 -8 73 0 79 -2 72 -17 -10 -23 -18 -832 -9
-940 7 -81 17 -106 24 -60 9 57 5 1019 -4 1025 -14 9 -174 9 -168 0z"/>
<path d="M10762 8276 c-17 -39 -49 -273 -68 -511 -12 -141 -17 -302 -16 -490
1 -299 18 -681 33 -730 6 -22 7 -13 4 35 -12 180 -15 660 -6 940 11 308 23
450 56 658 18 109 17 141 -3 98z"/>
<path d="M11080 6981 c0 -13 65 -34 87 -28 13 3 8 8 -19 20 -42 19 -68 22 -68
8z"/>
<path d="M11433 6973 c48 -2 125 -2 170 0 45 1 6 3 -88 3 -93 0 -130 -2 -82
-3z"/>
<path d="M11043 6818 c12 -212 27 -409 36 -447 14 -59 13 73 -4 319 -8 118
-15 223 -15 233 0 9 -5 17 -12 17 -8 0 -9 -33 -5 -122z"/>
<path d="M11146 6660 c13 -455 15 -580 6 -580 -5 0 -15 7 -22 15 -22 27 -32
16 -13 -16 39 -68 87 -82 323 -99 122 -9 342 5 599 36 30 4 52 3 49 -2 -2 -5
-70 -142 -150 -304 -80 -162 -155 -321 -167 -352 -37 -102 -3 -62 56 65 32 67
108 224 170 349 62 125 113 232 113 237 0 13 23 18 112 26 37 3 75 8 85 12 63
24 -132 17 -362 -14 -96 -13 -201 -18 -400 -18 -289 0 -333 4 -352 34 -8 12
-16 129 -23 337 -7 176 -16 333 -20 349 -4 17 -6 -14 -4 -75z"/>
<path d="M11502 6520 c109 -34 157 -94 158 -195 1 -180 -220 -245 -325 -96
-26 37 -30 51 -30 110 0 57 4 74 28 110 18 27 44 50 70 62 45 20 37 26 -10 8
-135 -51 -152 -265 -27 -351 115 -80 269 -28 304 103 21 76 4 130 -63 208 -27
33 -97 62 -141 60 -12 0 5 -9 36 -19z"/>
<path d="M12322 6320 c0 -14 2 -19 5 -12 2 6 2 18 0 25 -3 6 -5 1 -5 -13z"/>
<path d="M11090 6175 c0 -14 4 -25 9 -25 4 0 6 11 3 25 -2 14 -6 25 -8 25 -2
0 -4 -11 -4 -25z"/>
<path d="M11390 5701 c-47 -8 -64 -20 -82 -56 -35 -69 -163 -387 -194 -481
-29 -89 -94 -376 -94 -415 0 -21 57 -47 122 -53 31 -3 139 1 240 10 101 9 224
18 275 19 50 2 99 8 110 13 10 5 23 7 30 5 19 -7 15 137 -7 252 -34 175 -125
447 -212 633 -32 67 -91 90 -188 73z m-16 -179 c-7 -4 -14 -18 -17 -32 -4 -21
-4 -20 -6 8 -1 24 3 32 17 32 11 0 13 -3 6 -8z m-74 -67 c-16 -47 -23 -40 -9
9 6 21 13 36 16 33 3 -3 0 -22 -7 -42z m257 -6 c11 -24 26 -65 32 -92 6 -26
31 -102 55 -170 25 -67 48 -134 51 -149 l7 -28 -91 0 c-89 0 -92 -1 -101 -26
-6 -14 -10 -27 -10 -30 0 -2 37 -4 83 -5 129 -1 171 -10 175 -36 l3 -22 -148
6 c-81 3 -152 9 -157 13 -13 12 33 139 54 150 10 6 41 10 69 10 41 0 51 3 51
17 0 9 -23 84 -51 165 l-52 148 -67 -203 c-38 -111 -78 -224 -89 -250 -12 -27
-21 -52 -21 -57 0 -5 71 -11 158 -14 199 -7 262 -14 262 -31 0 -17 -476 -33
-493 -16 -8 8 -1 43 30 134 41 122 187 509 199 528 11 18 29 4 51 -42z m-253
-55 c3 -8 2 -12 -4 -9 -6 3 -10 10 -10 16 0 14 7 11 14 -7z m3 -71 c-3 -10 -5
-4 -5 12 0 17 2 24 5 18 2 -7 2 -21 0 -30z m-60 -5 c-3 -8 -6 -5 -6 6 -1 11 2
17 5 13 3 -3 4 -12 1 -19z m38 -36 c-7 -14 -9 -13 -15 8 -14 43 -11 56 6 32 9
-14 13 -30 9 -40z m-53 -22 c-2 -16 -6 -30 -8 -30 -2 0 -4 14 -4 30 0 17 4 30
8 30 5 0 7 -13 4 -30z m25 -22 c-2 -13 -4 -5 -4 17 -1 22 1 32 4 23 2 -10 2
-28 0 -40z m-50 -105 c-3 -10 -5 -4 -5 12 0 17 2 24 5 18 2 -7 2 -21 0 -30z
m50 15 c-3 -8 -6 -5 -6 6 -1 11 2 17 5 13 3 -3 4 -12 1 -19z m-60 -60 c-3 -8
-6 -5 -6 6 -1 11 2 17 5 13 3 -3 4 -12 1 -19z m14 -51 c-8 -8 -14 -8 -23 2
-11 10 -10 11 5 6 13 -6 17 -2 18 16 1 19 2 20 6 5 3 -10 0 -23 -6 -29z m-45
-34 c-10 -10 -19 5 -10 18 6 11 8 11 12 0 2 -7 1 -15 -2 -18z m44 -18 c0 -5
-5 -3 -10 5 -5 8 -10 20 -10 25 0 6 5 3 10 -5 5 -8 10 -19 10 -25z m-36 -30
c-4 -8 -11 -15 -16 -15 -6 0 -5 6 2 15 7 8 14 15 16 15 2 0 1 -7 -2 -15z"/>
<path d="M11650 2731 c0 -6 4 -13 10 -16 6 -3 7 1 4 9 -7 18 -14 21 -14 7z"/>
<path d="M2300 3970 c0 -6 -10 -8 -23 -5 -12 3 -33 2 -47 -3 l-24 -9 23 -12
c12 -7 25 -10 29 -7 3 3 0 6 -6 6 -7 0 -12 5 -12 10 0 12 53 1 58 -12 7 -17
20 -7 20 17 0 14 -4 25 -9 25 -5 0 -9 -5 -9 -10z"/>
<path d="M2236 3861 c-4 -5 3 -7 14 -4 23 6 26 13 6 13 -8 0 -17 -4 -20 -9z"/>
<path d="M2358 3863 c6 -2 18 -2 25 0 6 3 1 5 -13 5 -14 0 -19 -2 -12 -5z"/>
<path d="M2540 3850 c0 -5 5 -10 11 -10 5 0 7 5 4 10 -3 6 -8 10 -11 10 -2 0
-4 -4 -4 -10z"/>
<path d="M2098 3843 c12 -2 30 -2 40 0 9 3 -1 5 -23 4 -22 0 -30 -2 -17 -4z"/>
<path d="M2080 3757 c0 -59 3 -74 15 -74 9 0 15 9 15 21 0 12 3 45 6 74 6 48
5 52 -15 52 -20 0 -21 -5 -21 -73z"/>
<path d="M2100 3535 c-11 -13 -8 -15 14 -15 16 0 26 5 26 15 0 8 -6 15 -14 15
-7 0 -19 -7 -26 -15z"/>
<path d="M2270 3055 c0 -8 5 -15 10 -15 6 0 10 7 10 15 0 8 -4 15 -10 15 -5 0
-10 -7 -10 -15z"/>
<path d="M5226 1382 l-19 -27 24 22 c12 12 21 24 18 27 -2 2 -13 -8 -23 -22z"/>
<path d="M5165 1310 c-10 -11 -14 -20 -9 -20 5 0 15 9 22 20 7 11 11 20 9 20
-2 0 -12 -9 -22 -20z"/>
<path d="M4845 899 c-4 -6 -5 -12 -2 -15 2 -3 7 2 10 11 7 17 1 20 -8 4z"/>
<path d="M4610 660 c0 -5 5 -10 11 -10 5 0 7 5 4 10 -3 6 -8 10 -11 10 -2 0
-4 -4 -4 -10z"/>
<path d="M18158 820 c-26 -20 -73 -133 -63 -150 15 -24 144 4 183 40 49 46 9
130 -61 130 -19 0 -45 -9 -59 -20z"/>
<path d="M18905 631 c-48 -23 -114 -71 -96 -71 7 0 19 7 27 15 9 8 32 15 52
15 34 0 142 42 142 55 0 13 -89 3 -125 -14z"/>
<path d="M18742 497 c-31 -11 -122 -91 -122 -107 0 -9 198 -65 323 -91 100
-20 213 -25 237 -9 23 16 -7 36 -183 128 -164 86 -204 98 -255 79z"/>
<path d="M18207 460 c4 -16 9 -18 25 -9 17 9 18 13 7 20 -24 15 -37 10 -32
-11z"/>
<path d="M18306 413 c7 -21 14 -58 14 -83 l1 -45 20 50 c33 84 32 83 0 99 -44
23 -50 20 -35 -21z"/>
<path d="M18480 363 c0 -10 -3 -28 -6 -40 -9 -33 11 -28 37 8 18 26 19 33 8
40 -22 14 -39 10 -39 -8z"/>
<path d="M20439 9093 c-20 -27 -68 -82 -107 -124 -40 -42 -72 -81 -72 -87 0
-9 181 -72 208 -72 9 0 12 42 12 165 0 91 -1 165 -3 165 -1 0 -19 -21 -38 -47z"/>
<path d="M11671 2104 c0 -11 3 -14 6 -6 3 7 2 16 -1 19 -3 4 -6 -2 -5 -13z"/>
<path d="M11655 2044 c-8 -20 -18 -55 -22 -78 -3 -23 -12 -52 -19 -66 -7 -14
-20 -62 -28 -105 -16 -76 -52 -184 -66 -195 -9 -7 -70 -261 -70 -292 0 -15
-10 -36 -21 -47 -14 -13 -20 -27 -16 -40 3 -12 1 -21 -4 -21 -5 0 -9 -17 -9
-37 0 -42 -13 -69 -27 -60 -14 9 -40 -104 -48 -204 -1 -14 -4 -30 -7 -35 -9
-14 -17 -62 -23 -134 -7 -78 -15 -122 -25 -135 -4 -5 -10 -32 -14 -60 -13 -99
-28 -191 -42 -260 -8 -38 -22 -116 -32 -173 l-19 -102 183 0 183 0 6 32 c3 18
14 159 25 313 35 479 50 677 60 765 5 47 11 121 15 165 3 44 10 112 15 150 31
219 49 423 47 529 -2 130 -14 156 -42 90z"/>
<path d="M11360 1130 c0 -5 5 -10 11 -10 5 0 7 5 4 10 -3 6 -8 10 -11 10 -2 0
-4 -4 -4 -10z"/>
</g>
</svg>
